%TF.GenerationSoftware,KiCad,Pcbnew,9.0.7*%
%TF.CreationDate,2026-03-29T23:01:15+05:30*%
%TF.ProjectId,USB3_to_RGMII_LAN7801,55534233-5f74-46f5-9f52-474d49495f4c,rev?*%
%TF.SameCoordinates,Original*%
%TF.FileFunction,Copper,L1,Top*%
%TF.FilePolarity,Positive*%
%FSLAX46Y46*%
G04 Gerber Fmt 4.6, Leading zero omitted, Abs format (unit mm)*
G04 Created by KiCad (PCBNEW 9.0.7) date 2026-03-29 23:01:15*
%MOMM*%
%LPD*%
G01*
G04 APERTURE LIST*
G04 Aperture macros list*
%AMRoundRect*
0 Rectangle with rounded corners*
0 $1 Rounding radius*
0 $2 $3 $4 $5 $6 $7 $8 $9 X,Y pos of 4 corners*
0 Add a 4 corners polygon primitive as box body*
4,1,4,$2,$3,$4,$5,$6,$7,$8,$9,$2,$3,0*
0 Add four circle primitives for the rounded corners*
1,1,$1+$1,$2,$3*
1,1,$1+$1,$4,$5*
1,1,$1+$1,$6,$7*
1,1,$1+$1,$8,$9*
0 Add four rect primitives between the rounded corners*
20,1,$1+$1,$2,$3,$4,$5,0*
20,1,$1+$1,$4,$5,$6,$7,0*
20,1,$1+$1,$6,$7,$8,$9,0*
20,1,$1+$1,$8,$9,$2,$3,0*%
G04 Aperture macros list end*
%TA.AperFunction,SMDPad,CuDef*%
%ADD10RoundRect,0.225000X0.225000X0.250000X-0.225000X0.250000X-0.225000X-0.250000X0.225000X-0.250000X0*%
%TD*%
%TA.AperFunction,SMDPad,CuDef*%
%ADD11RoundRect,0.225000X-0.225000X-0.250000X0.225000X-0.250000X0.225000X0.250000X-0.225000X0.250000X0*%
%TD*%
%TA.AperFunction,SMDPad,CuDef*%
%ADD12RoundRect,0.200000X-0.200000X-0.275000X0.200000X-0.275000X0.200000X0.275000X-0.200000X0.275000X0*%
%TD*%
%TA.AperFunction,SMDPad,CuDef*%
%ADD13RoundRect,0.200000X-0.275000X0.200000X-0.275000X-0.200000X0.275000X-0.200000X0.275000X0.200000X0*%
%TD*%
%TA.AperFunction,SMDPad,CuDef*%
%ADD14RoundRect,0.225000X-0.250000X0.225000X-0.250000X-0.225000X0.250000X-0.225000X0.250000X0.225000X0*%
%TD*%
%TA.AperFunction,SMDPad,CuDef*%
%ADD15RoundRect,0.225000X0.250000X-0.225000X0.250000X0.225000X-0.250000X0.225000X-0.250000X-0.225000X0*%
%TD*%
%TA.AperFunction,ComponentPad*%
%ADD16RoundRect,0.250000X0.350000X-0.350000X0.350000X0.350000X-0.350000X0.350000X-0.350000X-0.350000X0*%
%TD*%
%TA.AperFunction,ComponentPad*%
%ADD17C,1.200000*%
%TD*%
%TA.AperFunction,ComponentPad*%
%ADD18O,2.400000X1.200000*%
%TD*%
%TA.AperFunction,ComponentPad*%
%ADD19O,2.100000X1.200000*%
%TD*%
%TA.AperFunction,SMDPad,CuDef*%
%ADD20RoundRect,0.150000X-0.587500X-0.150000X0.587500X-0.150000X0.587500X0.150000X-0.587500X0.150000X0*%
%TD*%
%TA.AperFunction,SMDPad,CuDef*%
%ADD21RoundRect,0.250000X0.450000X0.350000X-0.450000X0.350000X-0.450000X-0.350000X0.450000X-0.350000X0*%
%TD*%
%TA.AperFunction,SMDPad,CuDef*%
%ADD22RoundRect,0.093750X-0.093750X-0.106250X0.093750X-0.106250X0.093750X0.106250X-0.093750X0.106250X0*%
%TD*%
%TA.AperFunction,HeatsinkPad*%
%ADD23R,1.000000X1.600000*%
%TD*%
%TA.AperFunction,SMDPad,CuDef*%
%ADD24R,0.807999X0.254800*%
%TD*%
%TA.AperFunction,SMDPad,CuDef*%
%ADD25R,0.254800X0.807999*%
%TD*%
%TA.AperFunction,SMDPad,CuDef*%
%ADD26R,6.096000X6.096000*%
%TD*%
%TA.AperFunction,SMDPad,CuDef*%
%ADD27RoundRect,0.200000X0.275000X-0.200000X0.275000X0.200000X-0.275000X0.200000X-0.275000X-0.200000X0*%
%TD*%
%TA.AperFunction,SMDPad,CuDef*%
%ADD28RoundRect,0.250000X-0.450000X-0.350000X0.450000X-0.350000X0.450000X0.350000X-0.450000X0.350000X0*%
%TD*%
%TA.AperFunction,SMDPad,CuDef*%
%ADD29RoundRect,0.062500X-0.375000X-0.062500X0.375000X-0.062500X0.375000X0.062500X-0.375000X0.062500X0*%
%TD*%
%TA.AperFunction,SMDPad,CuDef*%
%ADD30RoundRect,0.062500X-0.062500X-0.375000X0.062500X-0.375000X0.062500X0.375000X-0.062500X0.375000X0*%
%TD*%
%TA.AperFunction,HeatsinkPad*%
%ADD31R,5.150000X5.150000*%
%TD*%
%TA.AperFunction,SMDPad,CuDef*%
%ADD32RoundRect,0.087500X-0.425000X-0.087500X0.425000X-0.087500X0.425000X0.087500X-0.425000X0.087500X0*%
%TD*%
%TA.AperFunction,SMDPad,CuDef*%
%ADD33RoundRect,0.087500X-0.087500X-0.425000X0.087500X-0.425000X0.087500X0.425000X-0.087500X0.425000X0*%
%TD*%
%TA.AperFunction,HeatsinkPad*%
%ADD34C,0.500000*%
%TD*%
%TA.AperFunction,HeatsinkPad*%
%ADD35R,3.150000X3.150000*%
%TD*%
%TA.AperFunction,SMDPad,CuDef*%
%ADD36RoundRect,0.150000X-0.825000X-0.150000X0.825000X-0.150000X0.825000X0.150000X-0.825000X0.150000X0*%
%TD*%
%TA.AperFunction,ComponentPad*%
%ADD37R,1.524000X1.524000*%
%TD*%
%TA.AperFunction,ComponentPad*%
%ADD38C,1.524000*%
%TD*%
%TA.AperFunction,ComponentPad*%
%ADD39C,1.800000*%
%TD*%
%TA.AperFunction,ComponentPad*%
%ADD40C,2.630000*%
%TD*%
%TA.AperFunction,ComponentPad*%
%ADD41C,2.610000*%
%TD*%
%TA.AperFunction,SMDPad,CuDef*%
%ADD42RoundRect,0.218750X-0.256250X0.218750X-0.256250X-0.218750X0.256250X-0.218750X0.256250X0.218750X0*%
%TD*%
%TA.AperFunction,ViaPad*%
%ADD43C,0.500000*%
%TD*%
%TA.AperFunction,ViaPad*%
%ADD44C,0.400000*%
%TD*%
%TA.AperFunction,ViaPad*%
%ADD45C,0.600000*%
%TD*%
%TA.AperFunction,Conductor*%
%ADD46C,0.127000*%
%TD*%
%TA.AperFunction,Conductor*%
%ADD47C,0.250000*%
%TD*%
%TA.AperFunction,Conductor*%
%ADD48C,0.380000*%
%TD*%
%TA.AperFunction,Conductor*%
%ADD49C,0.200000*%
%TD*%
%TA.AperFunction,Conductor*%
%ADD50C,0.210000*%
%TD*%
G04 APERTURE END LIST*
D10*
%TO.P,C25,1*%
%TO.N,Net-(U2-XO)*%
X170775000Y-88000000D03*
%TO.P,C25,2*%
%TO.N,GND*%
X169225000Y-88000000D03*
%TD*%
D11*
%TO.P,C49,1*%
%TO.N,Net-(U4-XO)*%
X134950000Y-90000000D03*
%TO.P,C49,2*%
%TO.N,GND*%
X136500000Y-90000000D03*
%TD*%
D12*
%TO.P,R3,1*%
%TO.N,Net-(U2-RESET_N{slash}PME_CLEAR)*%
X177675000Y-96500000D03*
%TO.P,R3,2*%
%TO.N,+3V3*%
X179325000Y-96500000D03*
%TD*%
D11*
%TO.P,C18,1*%
%TO.N,+1V2*%
X177725000Y-102000000D03*
%TO.P,C18,2*%
%TO.N,GND*%
X179275000Y-102000000D03*
%TD*%
D12*
%TO.P,R33,1*%
%TO.N,Net-(J2-LED2+)*%
X126675000Y-103500000D03*
%TO.P,R33,2*%
%TO.N,+3V3*%
X128325000Y-103500000D03*
%TD*%
D13*
%TO.P,R27,1*%
%TO.N,Net-(J2-LED1-)*%
X141000000Y-110500000D03*
%TO.P,R27,2*%
%TO.N,+3V3*%
X141000000Y-112150000D03*
%TD*%
D14*
%TO.P,C48,1*%
%TO.N,GND*%
X121000000Y-87725000D03*
%TO.P,C48,2*%
%TO.N,Net-(J2-MXCT1)*%
X121000000Y-89275000D03*
%TD*%
D10*
%TO.P,C44,1*%
%TO.N,Net-(Q1-D)*%
X136500000Y-88500000D03*
%TO.P,C44,2*%
%TO.N,GND*%
X134950000Y-88500000D03*
%TD*%
%TO.P,C7,1*%
%TO.N,+3V3*%
X164775000Y-104500000D03*
%TO.P,C7,2*%
%TO.N,GND*%
X163225000Y-104500000D03*
%TD*%
D14*
%TO.P,C29,1*%
%TO.N,+3V3*%
X136000000Y-103225000D03*
%TO.P,C29,2*%
%TO.N,GND*%
X136000000Y-104775000D03*
%TD*%
D15*
%TO.P,C32,1*%
%TO.N,+3V3*%
X144000000Y-93500000D03*
%TO.P,C32,2*%
%TO.N,GND*%
X144000000Y-91950000D03*
%TD*%
D11*
%TO.P,C10,1*%
%TO.N,+3V3*%
X177725000Y-95000000D03*
%TO.P,C10,2*%
%TO.N,GND*%
X179275000Y-95000000D03*
%TD*%
D12*
%TO.P,R1,1*%
%TO.N,Net-(U2-USBRBIAS)*%
X177675000Y-93500000D03*
%TO.P,R1,2*%
%TO.N,GND*%
X179325000Y-93500000D03*
%TD*%
D16*
%TO.P,J1,1,VBUS*%
%TO.N,+5V*%
X190350000Y-103500000D03*
D17*
%TO.P,J1,2,D-*%
%TO.N,/D-*%
X190350000Y-101000000D03*
%TO.P,J1,3,D+*%
%TO.N,/D+*%
X190350000Y-99000000D03*
%TO.P,J1,4,GND*%
%TO.N,GND*%
X190350000Y-96500000D03*
%TO.P,J1,5,SSRX-*%
%TO.N,/SSRX-*%
X188850000Y-96000000D03*
%TO.P,J1,6,SSRX+*%
%TO.N,/SSRX+*%
X188850000Y-98000000D03*
%TO.P,J1,7,DRAIN*%
%TO.N,GND*%
X188850000Y-100000000D03*
%TO.P,J1,8,SSTX-*%
%TO.N,/XTSS-*%
X188850000Y-102000000D03*
%TO.P,J1,9,SSTX+*%
%TO.N,/XTSS+*%
X188850000Y-104000000D03*
D18*
%TO.P,J1,10,SHIELD*%
%TO.N,GND*%
X189600000Y-106400000D03*
D19*
X198100000Y-106400000D03*
D18*
X189600000Y-93600000D03*
D19*
X198100000Y-93600000D03*
%TD*%
D20*
%TO.P,Q1,1,D*%
%TO.N,Net-(Q1-D)*%
X139562500Y-87050000D03*
%TO.P,Q1,2,S*%
%TO.N,+3V3*%
X139562500Y-88950000D03*
%TO.P,Q1,3,G*%
%TO.N,Net-(Q1-G)*%
X141437500Y-88000000D03*
%TD*%
D13*
%TO.P,R25,1*%
%TO.N,Net-(U2-RXD1)*%
X158000000Y-100000000D03*
%TO.P,R25,2*%
%TO.N,+3V3*%
X158000000Y-101650000D03*
%TD*%
D21*
%TO.P,Y1,1,1*%
%TO.N,Net-(U2-XI)*%
X175000000Y-86500000D03*
%TO.P,Y1,2,G*%
%TO.N,GND*%
X172800000Y-86500000D03*
%TO.P,Y1,3,3*%
%TO.N,Net-(U2-XO)*%
X172800000Y-88200000D03*
%TO.P,Y1,4,G*%
%TO.N,GND*%
X175000000Y-88200000D03*
%TD*%
D15*
%TO.P,C21,1*%
%TO.N,Net-(U2-VDD25_REG_OUT)*%
X165000000Y-91775000D03*
%TO.P,C21,2*%
%TO.N,GND*%
X165000000Y-90225000D03*
%TD*%
D10*
%TO.P,C1,1*%
%TO.N,+5V*%
X185550000Y-106000000D03*
%TO.P,C1,2*%
%TO.N,GND*%
X184000000Y-106000000D03*
%TD*%
D22*
%TO.P,U5,1,GND*%
%TO.N,GND*%
X193500000Y-108200000D03*
%TO.P,U5,2,GND*%
X193500000Y-108850000D03*
%TO.P,U5,3,GND*%
X193500000Y-109500000D03*
%TO.P,U5,4,IN*%
%TO.N,+5V*%
X195275000Y-109500000D03*
%TO.P,U5,5,IN*%
X195275000Y-108850000D03*
%TO.P,U5,6,IN*%
X195275000Y-108200000D03*
D23*
%TO.P,U5,7,GND*%
%TO.N,GND*%
X194387500Y-108850000D03*
%TD*%
D24*
%TO.P,U2,1,REF_REXT*%
%TO.N,Net-(U2-REF_REXT)*%
X167216400Y-96000000D03*
%TO.P,U2,2,REF_FILT*%
%TO.N,Net-(U2-REF_FILT)*%
X167216400Y-96499999D03*
%TO.P,U2,3,VDDVARIO*%
%TO.N,+3V3*%
X167216400Y-97000000D03*
%TO.P,U2,4,TXD3*%
%TO.N,Net-(U2-TXD3)*%
X167216400Y-97499999D03*
%TO.P,U2,5,TXD2*%
%TO.N,Net-(U2-TXD2)*%
X167216400Y-98000001D03*
%TO.P,U2,6,TXD1*%
%TO.N,Net-(U2-TXD1)*%
X167216400Y-98500000D03*
%TO.P,U2,7,VDDVARIO*%
%TO.N,+3V3*%
X167216400Y-98999999D03*
%TO.P,U2,8,TXD0*%
%TO.N,Net-(U2-TXD0)*%
X167216400Y-99500000D03*
%TO.P,U2,9,TX_CTL*%
%TO.N,Net-(U2-TX_CTL)*%
X167216400Y-100000000D03*
%TO.P,U2,10,TXC*%
%TO.N,Net-(U2-TXC)*%
X167216400Y-100500001D03*
%TO.P,U2,11,VDDVARIO*%
%TO.N,+3V3*%
X167216400Y-101000000D03*
%TO.P,U2,12,RXC*%
%TO.N,Net-(U2-RXC)*%
X167216400Y-101499999D03*
%TO.P,U2,13,RX_CTL*%
%TO.N,Net-(U2-RX_CTL)*%
X167216400Y-102000001D03*
%TO.P,U2,14,RXD0*%
%TO.N,Net-(U2-RXD0)*%
X167216400Y-102500000D03*
%TO.P,U2,15,RXD1*%
%TO.N,Net-(U2-RXD1)*%
X167216400Y-103000001D03*
%TO.P,U2,16,RXD2*%
%TO.N,Net-(U2-RXD2)*%
X167216400Y-103500000D03*
D25*
%TO.P,U2,17,RXD3*%
%TO.N,Net-(U2-RXD3)*%
X167858200Y-104141800D03*
%TO.P,U2,18,VDDVARIO*%
%TO.N,+3V3*%
X168358199Y-104141800D03*
%TO.P,U2,19,CLK125*%
%TO.N,Net-(U2-CLK125)*%
X168858200Y-104141800D03*
%TO.P,U2,20,VDD12_SW_OUT*%
%TO.N,Net-(U2-VDD12_SW_OUT)*%
X169358199Y-104141800D03*
%TO.P,U2,21,VDD12_SW_IN*%
%TO.N,+3V3*%
X169858201Y-104141800D03*
%TO.P,U2,22,VDD12_SW_FB*%
%TO.N,+1V2*%
X170358200Y-104141800D03*
%TO.P,U2,23,EECS/GPIO0*%
%TO.N,Net-(U2-EECS{slash}GPIO0)*%
X170858199Y-104141800D03*
%TO.P,U2,24,EEDI/GPIO1*%
%TO.N,Net-(U2-EEDI{slash}GPIO1)*%
X171358200Y-104141800D03*
%TO.P,U2,25,EEDO/GPIO2*%
%TO.N,Net-(U2-EEDO{slash}GPIO2)*%
X171858200Y-104141800D03*
%TO.P,U2,26,EECLK/GPIO3*%
%TO.N,Net-(U2-EECLK{slash}GPIO3)*%
X172358201Y-104141800D03*
%TO.P,U2,27,VDDVARIO*%
%TO.N,+3V3*%
X172858200Y-104141800D03*
%TO.P,U2,28,VDD12CORE*%
%TO.N,+1V2*%
X173358199Y-104141800D03*
%TO.P,U2,29,VBUS_DET*%
%TO.N,+3V3*%
X173858201Y-104141800D03*
%TO.P,U2,30,SUSPEND_N*%
%TO.N,unconnected-(U2-SUSPEND_N-Pad30)*%
X174358200Y-104141800D03*
%TO.P,U2,31,PHY_INT_N*%
%TO.N,Net-(U2-PHY_INT_N)*%
X174858201Y-104141800D03*
%TO.P,U2,32,PHY_RESET_N*%
%TO.N,Net-(U2-PHY_RESET_N)*%
X175358200Y-104141800D03*
D24*
%TO.P,U2,33,DUPLEX*%
%TO.N,+3V3*%
X176000000Y-103500000D03*
%TO.P,U2,34,NC*%
%TO.N,unconnected-(U2-NC-Pad34)*%
X176000000Y-103000001D03*
%TO.P,U2,35,GPIO4*%
%TO.N,unconnected-(U2-GPIO4-Pad35)*%
X176000000Y-102500000D03*
%TO.P,U2,36,PME_MODE/GPIO5*%
%TO.N,unconnected-(U2-PME_MODE{slash}GPIO5-Pad36)*%
X176000000Y-102000001D03*
%TO.P,U2,37,VDD12A*%
%TO.N,+1V2*%
X176000000Y-101499999D03*
%TO.P,U2,38,USB2_DP*%
%TO.N,/D+*%
X176000000Y-101000000D03*
%TO.P,U2,39,USB2_DM*%
%TO.N,/D-*%
X176000000Y-100500001D03*
%TO.P,U2,40,USB3_TXDP*%
%TO.N,/SSTX+*%
X176000000Y-100000000D03*
%TO.P,U2,41,USB3_TXDM*%
%TO.N,/SSTX-*%
X176000000Y-99500000D03*
%TO.P,U2,42,VDD12A*%
%TO.N,+1V2*%
X176000000Y-98999999D03*
%TO.P,U2,43,USB3_RXDP*%
%TO.N,/SSRX+*%
X176000000Y-98500000D03*
%TO.P,U2,44,USB3_RXDM*%
%TO.N,/SSRX-*%
X176000000Y-98000001D03*
%TO.P,U2,45,PME_N/GPIO6*%
%TO.N,unconnected-(U2-PME_N{slash}GPIO6-Pad45)*%
X176000000Y-97499999D03*
%TO.P,U2,46,TEST*%
%TO.N,GND*%
X176000000Y-97000000D03*
%TO.P,U2,47,RESET_N/PME_CLEAR*%
%TO.N,Net-(U2-RESET_N{slash}PME_CLEAR)*%
X176000000Y-96499999D03*
%TO.P,U2,48,VDDVARIO*%
%TO.N,+3V3*%
X176000000Y-96000000D03*
D25*
%TO.P,U2,49,USBRBIAS*%
%TO.N,Net-(U2-USBRBIAS)*%
X175358200Y-95358200D03*
%TO.P,U2,50,VDD33A*%
%TO.N,+3V3*%
X174858201Y-95358200D03*
%TO.P,U2,51,VDDVARIO*%
X174358200Y-95358200D03*
%TO.P,U2,52,XI*%
%TO.N,Net-(U2-XI)*%
X173858201Y-95358200D03*
%TO.P,U2,53,XO*%
%TO.N,Net-(U2-XO)*%
X173358199Y-95358200D03*
%TO.P,U2,54,VDD12CORE*%
%TO.N,+1V2*%
X172858200Y-95358200D03*
%TO.P,U2,55,MDIO*%
%TO.N,Net-(U2-MDIO)*%
X172358201Y-95358200D03*
%TO.P,U2,56,MDC*%
%TO.N,Net-(U2-MDC)*%
X171858200Y-95358200D03*
%TO.P,U2,57,TDI/GPIO7*%
%TO.N,Net-(U2-TDI{slash}GPIO7)*%
X171358200Y-95358200D03*
%TO.P,U2,58,TCK/GPIO8*%
%TO.N,Net-(U2-TCK{slash}GPIO8)*%
X170858199Y-95358200D03*
%TO.P,U2,59,TMS/GPIO9*%
%TO.N,Net-(U2-TMS{slash}GPIO9)*%
X170358200Y-95358200D03*
%TO.P,U2,60,TDO/GPIO10*%
%TO.N,unconnected-(U2-TDO{slash}GPIO10-Pad60)*%
X169858201Y-95358200D03*
%TO.P,U2,61,REFCLK_25/GPIO11*%
%TO.N,unconnected-(U2-REFCLK_25{slash}GPIO11-Pad61)*%
X169358199Y-95358200D03*
%TO.P,U2,62,VDD12A*%
%TO.N,+1V2*%
X168858200Y-95358200D03*
%TO.P,U2,63,VDD25_REG_OUT*%
%TO.N,Net-(U2-VDD25_REG_OUT)*%
X168358199Y-95358200D03*
%TO.P,U2,64,VDD33_REG_IN*%
%TO.N,+3V3*%
X167858200Y-95358200D03*
D26*
%TO.P,U2,65,VSS*%
%TO.N,GND*%
X171608200Y-99750000D03*
%TD*%
D27*
%TO.P,R22,1*%
%TO.N,Net-(U4-ISET)*%
X136500000Y-94825000D03*
%TO.P,R22,2*%
%TO.N,GND*%
X136500000Y-93175000D03*
%TD*%
%TO.P,R5,1*%
%TO.N,Net-(U2-TDI{slash}GPIO7)*%
X171000000Y-91825000D03*
%TO.P,R5,2*%
%TO.N,+3V3*%
X171000000Y-90175000D03*
%TD*%
D10*
%TO.P,C43,1*%
%TO.N,Net-(Q1-D)*%
X136500000Y-87000000D03*
%TO.P,C43,2*%
%TO.N,GND*%
X134950000Y-87000000D03*
%TD*%
D11*
%TO.P,C11,1*%
%TO.N,+3V3*%
X177725000Y-92000000D03*
%TO.P,C11,2*%
%TO.N,GND*%
X179275000Y-92000000D03*
%TD*%
D15*
%TO.P,C15,1*%
%TO.N,+1V2*%
X173000000Y-93050000D03*
%TO.P,C15,2*%
%TO.N,GND*%
X173000000Y-91500000D03*
%TD*%
D27*
%TO.P,R6,1*%
%TO.N,Net-(U2-TCK{slash}GPIO8)*%
X169500000Y-91825000D03*
%TO.P,R6,2*%
%TO.N,+3V3*%
X169500000Y-90175000D03*
%TD*%
D14*
%TO.P,C13,1*%
%TO.N,+3V3*%
X168000000Y-106950000D03*
%TO.P,C13,2*%
%TO.N,GND*%
X168000000Y-108500000D03*
%TD*%
D27*
%TO.P,R28,1*%
%TO.N,Net-(U4-CLK125_NDO{slash}LED_MODE)*%
X142500000Y-92650000D03*
%TO.P,R28,2*%
%TO.N,+3V3*%
X142500000Y-91000000D03*
%TD*%
D14*
%TO.P,C40,1*%
%TO.N,Net-(Q1-D)*%
X134500000Y-103225000D03*
%TO.P,C40,2*%
%TO.N,GND*%
X134500000Y-104775000D03*
%TD*%
%TO.P,C39,1*%
%TO.N,Net-(Q1-D)*%
X138000000Y-105500000D03*
%TO.P,C39,2*%
%TO.N,GND*%
X138000000Y-107050000D03*
%TD*%
D11*
%TO.P,C31,1*%
%TO.N,+3V3*%
X146725000Y-98000000D03*
%TO.P,C31,2*%
%TO.N,GND*%
X148275000Y-98000000D03*
%TD*%
D12*
%TO.P,R24,1*%
%TO.N,Net-(U2-RXD2)*%
X152675000Y-101500000D03*
%TO.P,R24,2*%
%TO.N,+3V3*%
X154325000Y-101500000D03*
%TD*%
D10*
%TO.P,C23,1*%
%TO.N,/XTSS+*%
X186550000Y-103490000D03*
%TO.P,C23,2*%
%TO.N,/SSTX+*%
X185000000Y-103490000D03*
%TD*%
D15*
%TO.P,C45,1*%
%TO.N,GND*%
X121000000Y-112050000D03*
%TO.P,C45,2*%
%TO.N,Net-(J2-MXCT4)*%
X121000000Y-110500000D03*
%TD*%
%TO.P,C46,1*%
%TO.N,GND*%
X118500000Y-112050000D03*
%TO.P,C46,2*%
%TO.N,Net-(J2-MXCT3)*%
X118500000Y-110500000D03*
%TD*%
D12*
%TO.P,R29,1*%
%TO.N,Net-(U2-RXC)*%
X147175000Y-96500000D03*
%TO.P,R29,2*%
%TO.N,GND*%
X148825000Y-96500000D03*
%TD*%
D15*
%TO.P,C42,1*%
%TO.N,Net-(Q1-D)*%
X140000000Y-94000000D03*
%TO.P,C42,2*%
%TO.N,GND*%
X140000000Y-92450000D03*
%TD*%
D27*
%TO.P,R31,1*%
%TO.N,Net-(U2-RX_CTL)*%
X157000000Y-95500000D03*
%TO.P,R31,2*%
%TO.N,GND*%
X157000000Y-93850000D03*
%TD*%
D14*
%TO.P,C38,1*%
%TO.N,Net-(Q1-D)*%
X142000000Y-106000000D03*
%TO.P,C38,2*%
%TO.N,GND*%
X142000000Y-107550000D03*
%TD*%
%TO.P,C8,1*%
%TO.N,+3V3*%
X174000000Y-106000000D03*
%TO.P,C8,2*%
%TO.N,GND*%
X174000000Y-107550000D03*
%TD*%
D11*
%TO.P,C36,1*%
%TO.N,Net-(Q1-D)*%
X146725000Y-103000000D03*
%TO.P,C36,2*%
%TO.N,GND*%
X148275000Y-103000000D03*
%TD*%
D15*
%TO.P,C34,1*%
%TO.N,Net-(Q1-D)*%
X147000000Y-93550000D03*
%TO.P,C34,2*%
%TO.N,GND*%
X147000000Y-92000000D03*
%TD*%
D14*
%TO.P,C30,1*%
%TO.N,+3V3*%
X140000000Y-105500000D03*
%TO.P,C30,2*%
%TO.N,GND*%
X140000000Y-107050000D03*
%TD*%
D28*
%TO.P,Y2,1,1*%
%TO.N,Net-(U4-XI)*%
X131025000Y-91700000D03*
%TO.P,Y2,2,G*%
%TO.N,GND*%
X133225000Y-91700000D03*
%TO.P,Y2,3,3*%
%TO.N,Net-(U4-XO)*%
X133225000Y-90000000D03*
%TO.P,Y2,4,G*%
%TO.N,GND*%
X131025000Y-90000000D03*
%TD*%
D27*
%TO.P,R21,1*%
%TO.N,Net-(U2-MDIO)*%
X167500000Y-88325000D03*
%TO.P,R21,2*%
%TO.N,+3V3*%
X167500000Y-86675000D03*
%TD*%
D29*
%TO.P,U4,1,AVDDH*%
%TO.N,+3V3*%
X137812500Y-97187500D03*
%TO.P,U4,2,TXRXP_A*%
%TO.N,/MX1+*%
X137812500Y-97687500D03*
%TO.P,U4,3,TXRXM_A*%
%TO.N,/MX1-*%
X137812500Y-98187500D03*
%TO.P,U4,4,AVDDL*%
%TO.N,Net-(Q1-D)*%
X137812500Y-98687500D03*
%TO.P,U4,5,TXRXP_B*%
%TO.N,/MX2+*%
X137812500Y-99187500D03*
%TO.P,U4,6,TXRXM_B*%
%TO.N,/MX2-*%
X137812500Y-99687500D03*
%TO.P,U4,7,TXRXP_C*%
%TO.N,/MX3+*%
X137812500Y-100187500D03*
%TO.P,U4,8,TXRXM_C*%
%TO.N,/MX3-*%
X137812500Y-100687500D03*
%TO.P,U4,9,AVDDL*%
%TO.N,Net-(Q1-D)*%
X137812500Y-101187500D03*
%TO.P,U4,10,TXRXP_D*%
%TO.N,/MX4+*%
X137812500Y-101687500D03*
%TO.P,U4,11,TXRXM_D*%
%TO.N,/MX4-*%
X137812500Y-102187500D03*
%TO.P,U4,12,AVDDH*%
%TO.N,+3V3*%
X137812500Y-102687500D03*
D30*
%TO.P,U4,13,NC*%
%TO.N,unconnected-(U4-NC-Pad13)*%
X138500000Y-103375000D03*
%TO.P,U4,14,DVDDL*%
%TO.N,Net-(Q1-D)*%
X139000000Y-103375000D03*
%TO.P,U4,15,LED2/PHYAD1*%
%TO.N,Net-(J2-LED2-)*%
X139500000Y-103375000D03*
%TO.P,U4,16,DVDDH*%
%TO.N,+3V3*%
X140000000Y-103375000D03*
%TO.P,U4,17,LED1/PHAD0/PME_N1*%
%TO.N,Net-(J2-LED1-)*%
X140500000Y-103375000D03*
%TO.P,U4,18,DVDDL*%
%TO.N,Net-(Q1-D)*%
X141000000Y-103375000D03*
%TO.P,U4,19,TXD0*%
%TO.N,Net-(U2-TXD0)*%
X141500000Y-103375000D03*
%TO.P,U4,20,TXD1*%
%TO.N,Net-(U2-TXD1)*%
X142000000Y-103375000D03*
%TO.P,U4,21,TXD2*%
%TO.N,Net-(U2-TXD2)*%
X142500000Y-103375000D03*
%TO.P,U4,22,TXD3*%
%TO.N,Net-(U2-TXD3)*%
X143000000Y-103375000D03*
%TO.P,U4,23,DVDDL*%
%TO.N,Net-(Q1-D)*%
X143500000Y-103375000D03*
%TO.P,U4,24,GTX_CLK*%
%TO.N,Net-(U2-TXC)*%
X144000000Y-103375000D03*
D29*
%TO.P,U4,25,TX_EN*%
%TO.N,Net-(U2-TX_CTL)*%
X144687500Y-102687500D03*
%TO.P,U4,26,DVDDL*%
%TO.N,Net-(Q1-D)*%
X144687500Y-102187500D03*
%TO.P,U4,27,RXD3/MODE3*%
%TO.N,Net-(U2-RXD3)*%
X144687500Y-101687500D03*
%TO.P,U4,28,RXD2/MODE2*%
%TO.N,Net-(U2-RXD2)*%
X144687500Y-101187500D03*
%TO.P,U4,29,VSS*%
%TO.N,GND*%
X144687500Y-100687500D03*
%TO.P,U4,30,DVDDL*%
%TO.N,Net-(Q1-D)*%
X144687500Y-100187500D03*
%TO.P,U4,31,RXD1/MODE1*%
%TO.N,Net-(U2-RXD1)*%
X144687500Y-99687500D03*
%TO.P,U4,32,RXD0/MODE0*%
%TO.N,Net-(U2-RXD0)*%
X144687500Y-99187500D03*
%TO.P,U4,33,RX_DV/CLK125_EN*%
%TO.N,Net-(U2-RX_CTL)*%
X144687500Y-98687500D03*
%TO.P,U4,34,DVDDH*%
%TO.N,+3V3*%
X144687500Y-98187500D03*
%TO.P,U4,35,RX_CLK/PHYAD2*%
%TO.N,Net-(U2-RXC)*%
X144687500Y-97687500D03*
%TO.P,U4,36,MDC*%
%TO.N,Net-(U2-MDC)*%
X144687500Y-97187500D03*
D30*
%TO.P,U4,37,MDIO*%
%TO.N,Net-(U2-MDIO)*%
X144000000Y-96500000D03*
%TO.P,U4,38,INT_N/PME_N2*%
%TO.N,Net-(U2-PHY_INT_N)*%
X143500000Y-96500000D03*
%TO.P,U4,39,DVDDL*%
%TO.N,Net-(Q1-D)*%
X143000000Y-96500000D03*
%TO.P,U4,40,DVDDH*%
%TO.N,+3V3*%
X142500000Y-96500000D03*
%TO.P,U4,41,CLK125_NDO/LED_MODE*%
%TO.N,Net-(U4-CLK125_NDO{slash}LED_MODE)*%
X142000000Y-96500000D03*
%TO.P,U4,42,RESET_N*%
%TO.N,Net-(U2-PHY_RESET_N)*%
X141500000Y-96500000D03*
%TO.P,U4,43,LDO_O*%
%TO.N,Net-(Q1-G)*%
X141000000Y-96500000D03*
%TO.P,U4,44,AVDDL_PLL*%
%TO.N,Net-(Q1-D)*%
X140500000Y-96500000D03*
%TO.P,U4,45,XO*%
%TO.N,Net-(U4-XO)*%
X140000000Y-96500000D03*
%TO.P,U4,46,XI*%
%TO.N,Net-(U4-XI)*%
X139500000Y-96500000D03*
%TO.P,U4,47,NC*%
%TO.N,unconnected-(U4-NC-Pad47)*%
X139000000Y-96500000D03*
%TO.P,U4,48,ISET*%
%TO.N,Net-(U4-ISET)*%
X138500000Y-96500000D03*
D31*
%TO.P,U4,49,PAD_GND*%
%TO.N,GND*%
X141250000Y-99937500D03*
%TD*%
D10*
%TO.P,C28,1*%
%TO.N,+3V3*%
X136275000Y-96500000D03*
%TO.P,C28,2*%
%TO.N,GND*%
X134725000Y-96500000D03*
%TD*%
D11*
%TO.P,C26,1*%
%TO.N,GND*%
X161225000Y-95500000D03*
%TO.P,C26,2*%
%TO.N,Net-(U2-REF_FILT)*%
X162775000Y-95500000D03*
%TD*%
D10*
%TO.P,C22,1*%
%TO.N,/XTSS-*%
X186550000Y-102000000D03*
%TO.P,C22,2*%
%TO.N,/SSTX-*%
X185000000Y-102000000D03*
%TD*%
D32*
%TO.P,U1,1,OUT*%
%TO.N,+3V3*%
X181775000Y-109000000D03*
%TO.P,U1,2*%
%TO.N,N/C*%
X181775000Y-109650000D03*
%TO.P,U1,3,SENSE/FB*%
%TO.N,+3V3*%
X181775000Y-110300000D03*
%TO.P,U1,4,6.4V*%
%TO.N,unconnected-(U1-6.4V-Pad4)*%
X181775000Y-110950000D03*
%TO.P,U1,5,6.4V*%
%TO.N,unconnected-(U1-6.4V-Pad5)*%
X181775000Y-111600000D03*
D33*
%TO.P,U1,6,3.2V*%
%TO.N,unconnected-(U1-3.2V-Pad6)*%
X182837500Y-112662500D03*
%TO.P,U1,7,GND*%
%TO.N,GND*%
X183487500Y-112662500D03*
%TO.P,U1,8,1.6V*%
X184137500Y-112662500D03*
%TO.P,U1,9,0.8V*%
%TO.N,unconnected-(U1-0.8V-Pad9)*%
X184787500Y-112662500D03*
%TO.P,U1,10,0.4V*%
%TO.N,unconnected-(U1-0.4V-Pad10)*%
X185437500Y-112662500D03*
D32*
%TO.P,U1,11,0.2V*%
%TO.N,GND*%
X186500000Y-111600000D03*
%TO.P,U1,12,0.1V*%
X186500000Y-110950000D03*
%TO.P,U1,13,EN*%
%TO.N,+5V*%
X186500000Y-110300000D03*
%TO.P,U1,14,NR*%
%TO.N,Net-(U1-NR)*%
X186500000Y-109650000D03*
%TO.P,U1,15,IN*%
%TO.N,+5V*%
X186500000Y-109000000D03*
D33*
%TO.P,U1,16,IN*%
X185437500Y-107937500D03*
%TO.P,U1,17*%
%TO.N,N/C*%
X184787500Y-107937500D03*
%TO.P,U1,18*%
X184137500Y-107937500D03*
%TO.P,U1,19*%
X183487500Y-107937500D03*
%TO.P,U1,20,OUT*%
%TO.N,+3V3*%
X182837500Y-107937500D03*
D34*
%TO.P,U1,21,EP*%
%TO.N,GND*%
X183137500Y-109300000D03*
X183137500Y-110300000D03*
X183137500Y-111300000D03*
X184137500Y-109300000D03*
X184137500Y-110300000D03*
D35*
X184137500Y-110300000D03*
D34*
X184137500Y-111300000D03*
X185137500Y-109300000D03*
X185137500Y-110300000D03*
X185137500Y-111300000D03*
%TD*%
D14*
%TO.P,C37,1*%
%TO.N,Net-(Q1-D)*%
X144000000Y-106000000D03*
%TO.P,C37,2*%
%TO.N,GND*%
X144000000Y-107550000D03*
%TD*%
D15*
%TO.P,C41,1*%
%TO.N,Net-(Q1-D)*%
X133000000Y-96775000D03*
%TO.P,C41,2*%
%TO.N,GND*%
X133000000Y-95225000D03*
%TD*%
D14*
%TO.P,C47,1*%
%TO.N,GND*%
X118500000Y-87725000D03*
%TO.P,C47,2*%
%TO.N,Net-(J2-MXCT2)*%
X118500000Y-89275000D03*
%TD*%
D36*
%TO.P,U3,1,CS*%
%TO.N,Net-(U2-EECS{slash}GPIO0)*%
X170050000Y-110000000D03*
%TO.P,U3,2,SCLK*%
%TO.N,Net-(U2-EECLK{slash}GPIO3)*%
X170050000Y-111270000D03*
%TO.P,U3,3,DI*%
%TO.N,Net-(U2-EEDO{slash}GPIO2)*%
X170050000Y-112540000D03*
%TO.P,U3,4,DO*%
%TO.N,Net-(U2-EEDI{slash}GPIO1)*%
X170050000Y-113810000D03*
%TO.P,U3,5,GND*%
%TO.N,GND*%
X175000000Y-113810000D03*
%TO.P,U3,6,NC*%
%TO.N,unconnected-(U3-NC-Pad6)*%
X175000000Y-112540000D03*
%TO.P,U3,7,NC*%
%TO.N,unconnected-(U3-NC-Pad7)*%
X175000000Y-111270000D03*
%TO.P,U3,8,VCC*%
%TO.N,+3V3*%
X175000000Y-110000000D03*
%TD*%
D15*
%TO.P,C27,1*%
%TO.N,Net-(U2-VDD25_REG_OUT)*%
X163500000Y-91775000D03*
%TO.P,C27,2*%
%TO.N,GND*%
X163500000Y-90225000D03*
%TD*%
%TO.P,C9,1*%
%TO.N,+3V3*%
X176000000Y-91775000D03*
%TO.P,C9,2*%
%TO.N,GND*%
X176000000Y-90225000D03*
%TD*%
D10*
%TO.P,C5,1*%
%TO.N,+3V3*%
X165275000Y-99500000D03*
%TO.P,C5,2*%
%TO.N,GND*%
X163725000Y-99500000D03*
%TD*%
D12*
%TO.P,R2,1*%
%TO.N,GND*%
X161175000Y-94000000D03*
%TO.P,R2,2*%
%TO.N,Net-(U2-REF_REXT)*%
X162825000Y-94000000D03*
%TD*%
D13*
%TO.P,R30,1*%
%TO.N,Net-(J2-LED2-)*%
X139000000Y-109500000D03*
%TO.P,R30,2*%
%TO.N,GND*%
X139000000Y-111150000D03*
%TD*%
D37*
%TO.P,J2,1,MXCT3*%
%TO.N,Net-(J2-MXCT3)*%
X118240000Y-104930000D03*
D38*
%TO.P,J2,2,MX3-*%
%TO.N,/MX3-*%
X118240000Y-102898000D03*
%TO.P,J2,3,MX3+*%
%TO.N,/MX3+*%
X118240000Y-100866000D03*
%TO.P,J2,4,MX2+*%
%TO.N,/MX2+*%
X118240000Y-98834000D03*
%TO.P,J2,5,MX2-*%
%TO.N,/MX2-*%
X118240000Y-96802000D03*
%TO.P,J2,6,MXCT2*%
%TO.N,Net-(J2-MXCT2)*%
X118240000Y-94770000D03*
%TO.P,J2,7,MXCT4*%
%TO.N,Net-(J2-MXCT4)*%
X120780000Y-105946000D03*
%TO.P,J2,8,MX4+*%
%TO.N,/MX4+*%
X120780000Y-103914000D03*
%TO.P,J2,9,MX4-*%
%TO.N,/MX4-*%
X120780000Y-101882000D03*
%TO.P,J2,10,MX1-*%
%TO.N,/MX1-*%
X120780000Y-97818000D03*
%TO.P,J2,11,MX1+*%
%TO.N,/MX1+*%
X120780000Y-95786000D03*
%TO.P,J2,12,MXCT1*%
%TO.N,Net-(J2-MXCT1)*%
X120780000Y-93754000D03*
D39*
%TO.P,J2,13,LED2-*%
%TO.N,Net-(J2-LED2-)*%
X123320000Y-105946000D03*
%TO.P,J2,14,LED2+*%
%TO.N,Net-(J2-LED2+)*%
X123320000Y-103406000D03*
%TO.P,J2,15,LED1-*%
%TO.N,Net-(J2-LED1-)*%
X123320000Y-96294000D03*
%TO.P,J2,16,LED1+*%
%TO.N,Net-(J2-LED1+)*%
X123320000Y-93754000D03*
D40*
%TO.P,J2,SH*%
%TO.N,GND*%
X99825000Y-107914500D03*
D41*
X99825000Y-91785500D03*
%TD*%
D11*
%TO.P,C3,1*%
%TO.N,Net-(U1-NR)*%
X188225000Y-110000000D03*
%TO.P,C3,2*%
%TO.N,GND*%
X189775000Y-110000000D03*
%TD*%
D12*
%TO.P,R4,1*%
%TO.N,GND*%
X163175000Y-106000000D03*
%TO.P,R4,2*%
%TO.N,Net-(U2-CLK125)*%
X164825000Y-106000000D03*
%TD*%
D27*
%TO.P,R7,1*%
%TO.N,Net-(U2-TMS{slash}GPIO9)*%
X168000000Y-91825000D03*
%TO.P,R7,2*%
%TO.N,+3V3*%
X168000000Y-90175000D03*
%TD*%
D42*
%TO.P,L1,1,1*%
%TO.N,Net-(U2-VDD12_SW_OUT)*%
X166500000Y-107000000D03*
%TO.P,L1,2,2*%
%TO.N,+1V2*%
X166500000Y-108575000D03*
%TD*%
D27*
%TO.P,R26,1*%
%TO.N,Net-(U2-RXD0)*%
X158500000Y-95650000D03*
%TO.P,R26,2*%
%TO.N,GND*%
X158500000Y-94000000D03*
%TD*%
D11*
%TO.P,C35,1*%
%TO.N,Net-(Q1-D)*%
X148725000Y-100500000D03*
%TO.P,C35,2*%
%TO.N,GND*%
X150275000Y-100500000D03*
%TD*%
D14*
%TO.P,C16,1*%
%TO.N,+1V2*%
X165000000Y-110000000D03*
%TO.P,C16,2*%
%TO.N,GND*%
X165000000Y-111550000D03*
%TD*%
D15*
%TO.P,C20,1*%
%TO.N,+1V2*%
X166500000Y-91775000D03*
%TO.P,C20,2*%
%TO.N,GND*%
X166500000Y-90225000D03*
%TD*%
D14*
%TO.P,C14,1*%
%TO.N,+1V2*%
X175500000Y-106000000D03*
%TO.P,C14,2*%
%TO.N,GND*%
X175500000Y-107550000D03*
%TD*%
D13*
%TO.P,R20,1*%
%TO.N,+3V3*%
X148500000Y-90675000D03*
%TO.P,R20,2*%
%TO.N,Net-(U2-PHY_INT_N)*%
X148500000Y-92325000D03*
%TD*%
D11*
%TO.P,C33,1*%
%TO.N,GND*%
X127720000Y-91500000D03*
%TO.P,C33,2*%
%TO.N,Net-(U4-XI)*%
X129270000Y-91500000D03*
%TD*%
D10*
%TO.P,C6,1*%
%TO.N,+3V3*%
X165275000Y-101000000D03*
%TO.P,C6,2*%
%TO.N,GND*%
X163725000Y-101000000D03*
%TD*%
%TO.P,C4,1*%
%TO.N,+3V3*%
X162775000Y-97000000D03*
%TO.P,C4,2*%
%TO.N,GND*%
X161225000Y-97000000D03*
%TD*%
%TO.P,C12,1*%
%TO.N,+3V3*%
X161775000Y-92500000D03*
%TO.P,C12,2*%
%TO.N,GND*%
X160225000Y-92500000D03*
%TD*%
D14*
%TO.P,C17,1*%
%TO.N,+1V2*%
X168000000Y-110000000D03*
%TO.P,C17,2*%
%TO.N,GND*%
X168000000Y-111550000D03*
%TD*%
D12*
%TO.P,R32,1*%
%TO.N,Net-(J2-LED1+)*%
X126675000Y-93500000D03*
%TO.P,R32,2*%
%TO.N,+3V3*%
X128325000Y-93500000D03*
%TD*%
D11*
%TO.P,C19,1*%
%TO.N,+1V2*%
X178225000Y-99000000D03*
%TO.P,C19,2*%
%TO.N,GND*%
X179775000Y-99000000D03*
%TD*%
D12*
%TO.P,R23,1*%
%TO.N,Net-(U2-RXD3)*%
X152675000Y-103000000D03*
%TO.P,R23,2*%
%TO.N,+3V3*%
X154325000Y-103000000D03*
%TD*%
D10*
%TO.P,C24,1*%
%TO.N,GND*%
X178275000Y-86500000D03*
%TO.P,C24,2*%
%TO.N,Net-(U2-XI)*%
X176725000Y-86500000D03*
%TD*%
D14*
%TO.P,C2,1*%
%TO.N,+3V3*%
X180000000Y-110725000D03*
%TO.P,C2,2*%
%TO.N,GND*%
X180000000Y-112275000D03*
%TD*%
D43*
%TO.N,GND*%
X141250000Y-99937500D03*
X171608200Y-99750000D03*
%TO.N,+3V3*%
X148422256Y-90422256D03*
%TO.N,GND*%
X165000000Y-111500000D03*
X149500000Y-95986500D03*
X174344701Y-88500000D03*
X140000000Y-92500000D03*
X150500000Y-100500000D03*
X121000000Y-87500000D03*
X164000000Y-99500000D03*
X158500000Y-94000000D03*
X179500000Y-92000000D03*
X179500000Y-93500000D03*
X169000000Y-88000000D03*
X144000000Y-92000000D03*
X134500000Y-105000000D03*
X180000000Y-112500000D03*
X146886900Y-91886900D03*
X134500000Y-96500000D03*
D44*
X179500000Y-102000000D03*
D43*
X144000000Y-107500000D03*
X161175000Y-96486500D03*
X175000000Y-114000000D03*
D44*
X194150000Y-108850000D03*
D43*
X175500000Y-107550000D03*
X135000000Y-88500000D03*
X131000000Y-90000000D03*
X140000000Y-107000000D03*
X163500000Y-90225000D03*
X160000000Y-92500000D03*
X135000000Y-87000000D03*
X136500000Y-90000000D03*
X177000000Y-97490001D03*
X139000000Y-111013500D03*
X136500000Y-93000000D03*
X168000000Y-111500000D03*
X190000000Y-110000000D03*
X157000000Y-93500000D03*
X168000000Y-108436500D03*
X133500000Y-91500000D03*
X138000000Y-107000000D03*
X163000000Y-106000000D03*
X173000000Y-91500000D03*
X178500000Y-86500000D03*
X127500000Y-91500000D03*
X172500000Y-85986500D03*
X136000000Y-105000000D03*
X121000000Y-112000000D03*
X133000000Y-95000000D03*
X148500000Y-103000000D03*
X166500000Y-90013500D03*
X118500000Y-112000000D03*
X142000000Y-107500000D03*
X179500000Y-95000000D03*
X118500000Y-87500000D03*
D44*
X184000000Y-106000000D03*
D43*
X162201436Y-101798564D03*
X176000000Y-90000000D03*
X163000000Y-104500000D03*
D45*
%TO.N,+5V*%
X195387502Y-108850000D03*
D43*
%TO.N,+3V3*%
X142500000Y-91000000D03*
X161775000Y-92500000D03*
X144000000Y-93563500D03*
X154500000Y-103000000D03*
X136000000Y-103225000D03*
X136387500Y-96612500D03*
X146725000Y-98000000D03*
X181775000Y-108975000D03*
X128500000Y-93500000D03*
X158000000Y-101650000D03*
X164887500Y-104612500D03*
X139500000Y-89000000D03*
X176108089Y-103627400D03*
X168000000Y-99000000D03*
X176000000Y-91775000D03*
X140000000Y-105500000D03*
X177612500Y-95112500D03*
X175000000Y-110000000D03*
X169500000Y-90175000D03*
X177725000Y-92000000D03*
X164072905Y-96927095D03*
X168000000Y-106950000D03*
X141000000Y-112000000D03*
D44*
X174000000Y-106000000D03*
D43*
X167500000Y-85986500D03*
X154500000Y-101500000D03*
X165436500Y-101000000D03*
X128500000Y-103500000D03*
%TO.N,+1V2*%
X177725000Y-102000000D03*
X175500000Y-106000000D03*
X168000000Y-110000000D03*
%TO.N,Net-(Q1-D)*%
X145500000Y-93050000D03*
X140000000Y-94000000D03*
X134710500Y-101187500D03*
X147000000Y-93550000D03*
D44*
X148000000Y-105500000D03*
X147000000Y-106000000D03*
D43*
X133187500Y-98687500D03*
X149000000Y-94500000D03*
D44*
X144000000Y-106000000D03*
D43*
X146725000Y-103000000D03*
X148725000Y-100500000D03*
X134500000Y-103225000D03*
X133000000Y-96775000D03*
D44*
X143500000Y-103000000D03*
D43*
%TO.N,Net-(U2-TX_CTL)*%
X168060198Y-100000000D03*
X144613100Y-102762500D03*
%TO.N,Net-(U2-RXD3)*%
X146069835Y-101572582D03*
X167730797Y-104063648D03*
%TO.N,Net-(U2-RXC)*%
X165500000Y-102000000D03*
X145794374Y-97596883D03*
%TO.N,Net-(U2-RXD2)*%
X145549826Y-101032125D03*
X167000000Y-103577403D03*
%TO.N,Net-(U2-RXD1)*%
X146685835Y-99814171D03*
X159250000Y-98750000D03*
X168060201Y-102747583D03*
%TO.N,Net-(U2-RXD0)*%
X146747034Y-99066671D03*
X166000000Y-103000000D03*
X160000000Y-98069500D03*
%TO.N,Net-(U2-RX_CTL)*%
X168000000Y-102000000D03*
X157000000Y-97500000D03*
X146000000Y-99000000D03*
%TO.N,Net-(U2-TXC)*%
X144495070Y-103401697D03*
X166392696Y-100321235D03*
%TO.N,Net-(U2-PHY_INT_N)*%
X174858201Y-103485473D03*
X144000000Y-95500000D03*
%TO.N,Net-(J2-LED1-)*%
X140922256Y-104577744D03*
X141000000Y-110500000D03*
%TO.N,Net-(J2-LED2-)*%
X139000000Y-109500000D03*
X135500000Y-109500000D03*
X139077744Y-104577744D03*
%TO.N,Net-(U2-PHY_RESET_N)*%
X175471249Y-104111589D03*
X142500000Y-87000000D03*
%TD*%
D46*
%TO.N,GND*%
X142000000Y-100687500D02*
X144687500Y-100687500D01*
X141250000Y-99937500D02*
X142000000Y-100687500D01*
D47*
%TO.N,+3V3*%
X146161497Y-98000000D02*
X145973997Y-98187500D01*
X146725000Y-98000000D02*
X146161497Y-98000000D01*
X145973997Y-98187500D02*
X144687500Y-98187500D01*
X148500000Y-90500000D02*
X148422256Y-90422256D01*
X148500000Y-90675000D02*
X148500000Y-90500000D01*
D46*
%TO.N,Net-(U2-RXC)*%
X147013500Y-96500000D02*
X147175000Y-96500000D01*
X146044767Y-97468733D02*
X147013500Y-96500000D01*
X145794374Y-97596883D02*
X145703757Y-97687500D01*
X145794374Y-97596883D02*
X145922524Y-97468733D01*
X145703757Y-97687500D02*
X144687500Y-97687500D01*
X145922524Y-97468733D02*
X146044767Y-97468733D01*
%TO.N,Net-(U2-EECS{slash}GPIO0)*%
X170858199Y-109191801D02*
X170858199Y-104141800D01*
X170050000Y-110000000D02*
X170858199Y-109191801D01*
D48*
%TO.N,+5V*%
X193611862Y-110500000D02*
X194775000Y-110500000D01*
X192111862Y-109000000D02*
X193611862Y-110500000D01*
X194775000Y-110500000D02*
X195275000Y-110000000D01*
D47*
%TO.N,GND*%
X150275000Y-100500000D02*
X150500000Y-100500000D01*
X163175000Y-106000000D02*
X163000000Y-106000000D01*
X118500000Y-87725000D02*
X118500000Y-87500000D01*
X168000000Y-108500000D02*
X168000000Y-108436500D01*
X175000000Y-113810000D02*
X175000000Y-114000000D01*
X179325000Y-93500000D02*
X179500000Y-93500000D01*
X174644701Y-88200000D02*
X174344701Y-88500000D01*
X121000000Y-87725000D02*
X121000000Y-87500000D01*
X189775000Y-110000000D02*
X190000000Y-110000000D01*
X157000000Y-93850000D02*
X157000000Y-93500000D01*
X148825000Y-96500000D02*
X148986500Y-96500000D01*
X165000000Y-90225000D02*
X163500000Y-90225000D01*
X183487500Y-112662500D02*
X183487500Y-111650000D01*
X138000000Y-107050000D02*
X138000000Y-107000000D01*
X185437500Y-111600000D02*
X185137500Y-111300000D01*
X144000000Y-91950000D02*
X144000000Y-92000000D01*
X161175000Y-94000000D02*
X161175000Y-96950000D01*
X133300000Y-91700000D02*
X133500000Y-91500000D01*
X186500000Y-111600000D02*
X185437500Y-111600000D01*
X144000000Y-107550000D02*
X144000000Y-107500000D01*
X175500000Y-107550000D02*
X174000000Y-107550000D01*
X172800000Y-86286500D02*
X172500000Y-85986500D01*
X148275000Y-103000000D02*
X148500000Y-103000000D01*
X166500000Y-90225000D02*
X166500000Y-90013500D01*
X161225000Y-97000000D02*
X161225000Y-96536500D01*
X176509999Y-97000000D02*
X177000000Y-97490001D01*
X136500000Y-93175000D02*
X136500000Y-93000000D01*
X163725000Y-101000000D02*
X163000000Y-101000000D01*
X160225000Y-92500000D02*
X160000000Y-92500000D01*
X140000000Y-107050000D02*
X140000000Y-107000000D01*
X147000000Y-92000000D02*
X146886900Y-91886900D01*
X134725000Y-96500000D02*
X134500000Y-96500000D01*
X140000000Y-92450000D02*
X140000000Y-92500000D01*
X165000000Y-111550000D02*
X165000000Y-111500000D01*
X134950000Y-88500000D02*
X135000000Y-88500000D01*
X184137500Y-112662500D02*
X184137500Y-111300000D01*
X179275000Y-95000000D02*
X179500000Y-95000000D01*
X179775000Y-99000000D02*
X187850000Y-99000000D01*
X180000000Y-112275000D02*
X180000000Y-112500000D01*
X133225000Y-91700000D02*
X133300000Y-91700000D01*
X127720000Y-91500000D02*
X127500000Y-91500000D01*
X183487500Y-111650000D02*
X183137500Y-111300000D01*
X148275000Y-98000000D02*
X148275000Y-97050000D01*
X134500000Y-104775000D02*
X134500000Y-105000000D01*
D46*
X193500000Y-109500000D02*
X193500000Y-108200000D01*
D47*
X163225000Y-104500000D02*
X163000000Y-104500000D01*
X142000000Y-107550000D02*
X142000000Y-107500000D01*
X161225000Y-96536500D02*
X161175000Y-96486500D01*
X169225000Y-88000000D02*
X169000000Y-88000000D01*
X139000000Y-111150000D02*
X139000000Y-111013500D01*
D46*
X194387500Y-108850000D02*
X194150000Y-108850000D01*
D47*
X118500000Y-112050000D02*
X118500000Y-112000000D01*
X121000000Y-112050000D02*
X121000000Y-112000000D01*
X148986500Y-96500000D02*
X149500000Y-95986500D01*
X134950000Y-87000000D02*
X135000000Y-87000000D01*
X133000000Y-95225000D02*
X133000000Y-95000000D01*
D46*
X194150000Y-108850000D02*
X193500000Y-108200000D01*
D47*
X136000000Y-104775000D02*
X136000000Y-105000000D01*
X185787500Y-110950000D02*
X185137500Y-110300000D01*
X172800000Y-86500000D02*
X172800000Y-86286500D01*
X176000000Y-97000000D02*
X176509999Y-97000000D01*
X148275000Y-97050000D02*
X148825000Y-96500000D01*
X131025000Y-90000000D02*
X131000000Y-90000000D01*
D46*
X179275000Y-102000000D02*
X179500000Y-102000000D01*
D47*
X168000000Y-111550000D02*
X168000000Y-111500000D01*
X163000000Y-101000000D02*
X162201436Y-101798564D01*
X178275000Y-86500000D02*
X178500000Y-86500000D01*
X175000000Y-88200000D02*
X174644701Y-88200000D01*
X176000000Y-90225000D02*
X176000000Y-90000000D01*
X187850000Y-99000000D02*
X188850000Y-100000000D01*
X179275000Y-92000000D02*
X179500000Y-92000000D01*
X161175000Y-96950000D02*
X161225000Y-97000000D01*
X186500000Y-110950000D02*
X185787500Y-110950000D01*
X163725000Y-99500000D02*
X164000000Y-99500000D01*
%TO.N,+5V*%
X185550000Y-107825000D02*
X185437500Y-107937500D01*
D48*
X185437500Y-107937500D02*
X186437500Y-107937500D01*
X195275000Y-108850000D02*
X195275000Y-108200000D01*
X186437500Y-107937500D02*
X186500000Y-108000000D01*
D47*
X190310862Y-110801000D02*
X192111862Y-109000000D01*
D48*
X195275000Y-109500000D02*
X195275000Y-108962502D01*
X185550000Y-106000000D02*
X185550000Y-107825000D01*
X186500000Y-108000000D02*
X186500000Y-109000000D01*
D47*
X195275000Y-108962502D02*
X195387502Y-108850000D01*
X187513499Y-110801000D02*
X190310862Y-110801000D01*
X187012499Y-110300000D02*
X187513499Y-110801000D01*
D48*
X186500000Y-109000000D02*
X192111862Y-109000000D01*
D47*
X186500000Y-110300000D02*
X187012499Y-110300000D01*
D48*
X195275000Y-110000000D02*
X195275000Y-109500000D01*
D47*
%TO.N,+3V3*%
X142500000Y-95000000D02*
X142500000Y-96500000D01*
X172858200Y-104858200D02*
X174000000Y-106000000D01*
X161775000Y-92500000D02*
X162474000Y-93199000D01*
X172858200Y-104141800D02*
X172904799Y-104141800D01*
D48*
X180871500Y-109971500D02*
X181200000Y-110300000D01*
D47*
X174411601Y-94588399D02*
X174411601Y-95358200D01*
X137812500Y-97187500D02*
X136962500Y-97187500D01*
X128325000Y-103500000D02*
X128500000Y-103500000D01*
D48*
X180871500Y-109361874D02*
X180138126Y-109361874D01*
D47*
X165275000Y-105000000D02*
X164775000Y-104500000D01*
X172904799Y-104141800D02*
X172904799Y-103411801D01*
X163275000Y-97000000D02*
X167216400Y-97000000D01*
X167216400Y-98999999D02*
X168000000Y-99000000D01*
D48*
X181775000Y-109000000D02*
X181775000Y-108975000D01*
D47*
X173811599Y-103411801D02*
X173811599Y-104141800D01*
X177725000Y-92000000D02*
X174858201Y-94866799D01*
X163500000Y-97000000D02*
X162775000Y-97000000D01*
X168000000Y-106950000D02*
X169858201Y-105091799D01*
X176725000Y-96000000D02*
X177725000Y-95000000D01*
X168183399Y-105000000D02*
X165275000Y-105000000D01*
X163275000Y-97000000D02*
X163500000Y-97000000D01*
X176000000Y-91775000D02*
X176000000Y-93000000D01*
X164000000Y-97000000D02*
X164072905Y-96927095D01*
X139562500Y-88950000D02*
X139550000Y-88950000D01*
X163500000Y-97000000D02*
X164000000Y-97000000D01*
D48*
X180138126Y-109361874D02*
X180000000Y-109500000D01*
D47*
X137812500Y-102687500D02*
X136537500Y-102687500D01*
X162474000Y-93199000D02*
X165699000Y-93199000D01*
X140000000Y-105500000D02*
X140000000Y-103375000D01*
D48*
X180871500Y-109361874D02*
X180871500Y-109971500D01*
D47*
X167216400Y-101000000D02*
X165436500Y-101000000D01*
X177725000Y-95000000D02*
X177825000Y-95000000D01*
X167216400Y-98999999D02*
X165775001Y-98999999D01*
X154325000Y-103000000D02*
X154500000Y-103000000D01*
X172904799Y-103411801D02*
X173811599Y-103411801D01*
D48*
X182837500Y-107937500D02*
X181775000Y-109000000D01*
D47*
X176000000Y-96000000D02*
X176725000Y-96000000D01*
X174858201Y-94866799D02*
X174858201Y-95358200D01*
X175000000Y-110000000D02*
X175500000Y-110000000D01*
X136962500Y-97187500D02*
X136275000Y-96500000D01*
D48*
X181200000Y-110300000D02*
X181775000Y-110300000D01*
D47*
X165775001Y-98999999D02*
X165275000Y-99500000D01*
X176000000Y-103500000D02*
X176000000Y-103519311D01*
X144000000Y-93500000D02*
X142500000Y-95000000D01*
X165275000Y-101000000D02*
X165436500Y-101000000D01*
D48*
X180000000Y-109500000D02*
X180000000Y-110725000D01*
D47*
X176000000Y-93000000D02*
X174411601Y-94588399D01*
X136537500Y-102687500D02*
X136000000Y-103225000D01*
X177825000Y-95000000D02*
X179325000Y-96500000D01*
X154325000Y-101500000D02*
X154500000Y-101500000D01*
X172858200Y-104141800D02*
X172858200Y-104858200D01*
X128325000Y-93500000D02*
X128500000Y-93500000D01*
X144000000Y-93563500D02*
X144000000Y-93500000D01*
X168358199Y-104141800D02*
X168358199Y-104825200D01*
X169858201Y-105091799D02*
X169858201Y-104141800D01*
D48*
X181233374Y-109000000D02*
X180871500Y-109361874D01*
D47*
X139550000Y-88950000D02*
X139500000Y-89000000D01*
X168358199Y-104825200D02*
X168183399Y-105000000D01*
X167500000Y-86675000D02*
X167500000Y-85986500D01*
X177725000Y-95000000D02*
X177612500Y-95112500D01*
X165699000Y-93199000D02*
X167858200Y-95358200D01*
D48*
X181775000Y-109000000D02*
X181233374Y-109000000D01*
D47*
X176000000Y-103519311D02*
X176108089Y-103627400D01*
X173811599Y-104141800D02*
X173858201Y-104141800D01*
X136275000Y-96500000D02*
X136387500Y-96612500D01*
X141000000Y-112150000D02*
X141000000Y-112000000D01*
X171000000Y-90175000D02*
X168000000Y-90175000D01*
D46*
%TO.N,Net-(U1-NR)*%
X187875000Y-109650000D02*
X188225000Y-110000000D01*
X186500000Y-109650000D02*
X187875000Y-109650000D01*
%TO.N,Net-(U2-XI)*%
X173858201Y-95358200D02*
X173858201Y-94449541D01*
X176725000Y-86500000D02*
X175000000Y-86500000D01*
X173858201Y-95358200D02*
X173866300Y-95350101D01*
X173858201Y-94449541D02*
X175000000Y-93307742D01*
X176725000Y-88185086D02*
X176725000Y-86500000D01*
X175000000Y-89910086D02*
X176725000Y-88185086D01*
X175000000Y-93307742D02*
X175000000Y-89910086D01*
%TO.N,Net-(U2-XO)*%
X170775000Y-88000000D02*
X172600000Y-88000000D01*
X173358199Y-93865293D02*
X173739500Y-93483992D01*
X173739500Y-90964500D02*
X170775000Y-88000000D01*
X172600000Y-88000000D02*
X172800000Y-88200000D01*
X173739500Y-93483992D02*
X173739500Y-90964500D01*
X173358199Y-95358200D02*
X173358199Y-93865293D01*
%TO.N,Net-(U2-USBRBIAS)*%
X175358200Y-95358200D02*
X175816800Y-95358200D01*
X175816800Y-95358200D02*
X177675000Y-93500000D01*
%TO.N,Net-(U2-REF_REXT)*%
X165216400Y-94000000D02*
X162825000Y-94000000D01*
X167216400Y-96000000D02*
X165216400Y-94000000D01*
%TO.N,Net-(U2-RESET_N{slash}PME_CLEAR)*%
X176000000Y-96499999D02*
X177675000Y-96500000D01*
D49*
%TO.N,+1V2*%
X172786601Y-96063199D02*
X172858200Y-95991600D01*
X175366602Y-98999999D02*
X175295001Y-99071600D01*
X173029799Y-96163199D02*
X174719399Y-96163199D01*
X169000000Y-109000000D02*
X169000000Y-107000000D01*
X176000000Y-98999999D02*
X176000001Y-99000000D01*
X174749000Y-105249000D02*
X175500000Y-106000000D01*
X173358199Y-104141800D02*
X173358199Y-104755745D01*
X176000000Y-98999999D02*
X175366602Y-98999999D01*
X175295001Y-96738801D02*
X175295001Y-98928398D01*
X166500000Y-108575000D02*
X166575000Y-108575000D01*
X175295001Y-101428400D02*
X175366600Y-101499999D01*
X168858200Y-95991600D02*
X168929799Y-96063199D01*
X168858200Y-95358200D02*
X168858200Y-95991600D01*
X169000000Y-107000000D02*
X170358200Y-105641800D01*
X176000001Y-99000000D02*
X178225000Y-99000000D01*
X172858200Y-93191800D02*
X172858200Y-95358200D01*
X177725000Y-102000000D02*
X177725000Y-101736981D01*
X172858200Y-95991600D02*
X172858200Y-95358200D01*
X177725000Y-101736981D02*
X177488018Y-101499999D01*
X172858200Y-95991600D02*
X173029799Y-96163199D01*
X177725000Y-101713019D02*
X177725000Y-102000000D01*
X168929799Y-96063199D02*
X172786601Y-96063199D01*
X168858200Y-94133200D02*
X168858200Y-95358200D01*
X166425000Y-108575000D02*
X165000000Y-110000000D01*
X166575000Y-108575000D02*
X168000000Y-110000000D01*
X173358199Y-104755745D02*
X173851454Y-105249000D01*
X177511981Y-101500000D02*
X177725000Y-101713019D01*
X166500000Y-108575000D02*
X166425000Y-108575000D01*
X175366600Y-101499999D02*
X176000000Y-101499999D01*
X175295001Y-98928398D02*
X175366602Y-98999999D01*
X174719399Y-96163199D02*
X175295001Y-96738801D01*
X173000000Y-93050000D02*
X172858200Y-93191800D01*
X166500000Y-91775000D02*
X168858200Y-94133200D01*
X175295001Y-99071600D02*
X175295001Y-101428400D01*
X173851454Y-105249000D02*
X174749000Y-105249000D01*
X170358200Y-105641800D02*
X170358200Y-104141800D01*
X177488018Y-101499999D02*
X176000000Y-101499999D01*
X168000000Y-110000000D02*
X169000000Y-109000000D01*
D46*
%TO.N,Net-(U2-VDD25_REG_OUT)*%
X165000000Y-91775000D02*
X167914701Y-94689701D01*
X168358199Y-94797800D02*
X168358199Y-95358200D01*
X163500000Y-91775000D02*
X165000000Y-91775000D01*
X167914701Y-94689701D02*
X168250100Y-94689701D01*
X168250100Y-94689701D02*
X168358199Y-94797800D01*
%TO.N,Net-(U2-EEDO{slash}GPIO2)*%
X171858200Y-111706799D02*
X171858200Y-104141800D01*
X171024999Y-112540000D02*
X171858200Y-111706799D01*
X170050000Y-112540000D02*
X171024999Y-112540000D01*
%TO.N,Net-(U2-REF_FILT)*%
X166499999Y-96499999D02*
X165500000Y-95500000D01*
X165500000Y-95500000D02*
X162775000Y-95500000D01*
X167216400Y-96499999D02*
X166499999Y-96499999D01*
%TO.N,Net-(U2-EEDI{slash}GPIO1)*%
X171030136Y-110514500D02*
X171358200Y-110186436D01*
X169069864Y-110514500D02*
X171030136Y-110514500D01*
X167260500Y-111983992D02*
X167260500Y-111116008D01*
X167541008Y-110835500D02*
X168748864Y-110835500D01*
X167260500Y-111116008D02*
X167541008Y-110835500D01*
X171358200Y-110186436D02*
X171358200Y-104141800D01*
X170050000Y-113810000D02*
X169086508Y-113810000D01*
X169086508Y-113810000D02*
X167260500Y-111983992D01*
X168748864Y-110835500D02*
X169069864Y-110514500D01*
D49*
%TO.N,/MX1-*%
X122919004Y-98402500D02*
X122919004Y-98622500D01*
X122175603Y-97818000D02*
X122520103Y-98162500D01*
X123159004Y-98862500D02*
X123279004Y-98862500D01*
X120780000Y-97818000D02*
X122175603Y-97818000D01*
X137131249Y-98162500D02*
X137156249Y-98187500D01*
X123759004Y-98162500D02*
X123879004Y-98162500D01*
X137156249Y-98187500D02*
X137812500Y-98187500D01*
X123879004Y-98162500D02*
X124187932Y-98162500D01*
X124187932Y-98162500D02*
X137131249Y-98162500D01*
X122520103Y-98162500D02*
X122679004Y-98162500D01*
X123519004Y-98622500D02*
X123519004Y-98402500D01*
X123519004Y-98402500D02*
G75*
G02*
X123759004Y-98162504I239996J0D01*
G01*
X122919004Y-98622500D02*
G75*
G03*
X123159004Y-98862496I239996J0D01*
G01*
X122679004Y-98162500D02*
G75*
G02*
X122919000Y-98402500I-4J-240000D01*
G01*
X123279004Y-98862500D02*
G75*
G03*
X123519000Y-98622500I-4J240000D01*
G01*
%TO.N,/MX3+*%
X124256827Y-100012500D02*
X124656827Y-100012500D01*
X118240000Y-100866000D02*
X119635603Y-100866000D01*
X121856827Y-100012500D02*
X122256827Y-100012500D01*
X123056827Y-100012500D02*
X123456827Y-100012500D01*
X137156249Y-100187500D02*
X137812500Y-100187500D01*
X120289103Y-100212500D02*
X121656827Y-100212500D01*
X123656827Y-100212500D02*
X124056827Y-100212500D01*
X125915898Y-100212500D02*
X137131249Y-100212500D01*
X119635603Y-100866000D02*
X120289103Y-100212500D01*
X137131249Y-100212500D02*
X137156249Y-100187500D01*
X125256827Y-100212500D02*
X125915898Y-100212500D01*
X124856827Y-100212500D02*
X125256827Y-100212500D01*
X122456827Y-100212500D02*
X122856827Y-100212500D01*
X122256827Y-100012500D02*
G75*
G02*
X122356800Y-100112500I-27J-100000D01*
G01*
X121656827Y-100212500D02*
G75*
G03*
X121756800Y-100112500I-27J100000D01*
G01*
X123456827Y-100012500D02*
G75*
G02*
X123556800Y-100112500I-27J-100000D01*
G01*
X122856827Y-100212500D02*
G75*
G03*
X122956800Y-100112500I-27J100000D01*
G01*
X121756827Y-100112500D02*
G75*
G02*
X121856827Y-100012527I99973J0D01*
G01*
X123556827Y-100112500D02*
G75*
G03*
X123656827Y-100212473I99973J0D01*
G01*
X122956827Y-100112500D02*
G75*
G02*
X123056827Y-100012527I99973J0D01*
G01*
X124156827Y-100112500D02*
G75*
G02*
X124256827Y-100012527I99973J0D01*
G01*
X122356827Y-100112500D02*
G75*
G03*
X122456827Y-100212473I99973J0D01*
G01*
X124756827Y-100112500D02*
G75*
G03*
X124856827Y-100212473I99973J0D01*
G01*
X124656827Y-100012500D02*
G75*
G02*
X124756800Y-100112500I-27J-100000D01*
G01*
X124056827Y-100212500D02*
G75*
G03*
X124156800Y-100112500I-27J100000D01*
G01*
%TO.N,/MX2-*%
X117227000Y-97815000D02*
X118240000Y-96802000D01*
X121500000Y-99662500D02*
X121315500Y-99847000D01*
X121315500Y-99847000D02*
X117820401Y-99847000D01*
X117227000Y-99253599D02*
X117227000Y-97815000D01*
X137812500Y-99687500D02*
X137156249Y-99687500D01*
X137131249Y-99662500D02*
X121500000Y-99662500D01*
X137156249Y-99687500D02*
X137131249Y-99662500D01*
X117820401Y-99847000D02*
X117227000Y-99253599D01*
%TO.N,/MX1+*%
X137131249Y-97712500D02*
X137156249Y-97687500D01*
X137156249Y-97687500D02*
X137812500Y-97687500D01*
X122706500Y-97712500D02*
X137131249Y-97712500D01*
X120780000Y-95786000D02*
X122706500Y-97712500D01*
%TO.N,/MX3-*%
X137131249Y-100662500D02*
X137156249Y-100687500D01*
X120475500Y-100662500D02*
X137131249Y-100662500D01*
X137156249Y-100687500D02*
X137812500Y-100687500D01*
X118240000Y-102898000D02*
X120475500Y-100662500D01*
%TO.N,/MX4-*%
X119966700Y-104533300D02*
X119767000Y-104333599D01*
X120360401Y-104927000D02*
X119966700Y-104533300D01*
X121199599Y-104927000D02*
X120360401Y-104927000D01*
X122799553Y-102162500D02*
X121793000Y-103169053D01*
X121793000Y-104333599D02*
X121199599Y-104927000D01*
X121793000Y-103169053D02*
X121793000Y-103494401D01*
X119767000Y-104333599D02*
X119767000Y-102895000D01*
X137156249Y-102187500D02*
X137131249Y-102162500D01*
X121060500Y-102162500D02*
X120780000Y-101882000D01*
X137131249Y-102162500D02*
X122799553Y-102162500D01*
X119767000Y-102895000D02*
X120780000Y-101882000D01*
X121793000Y-103494401D02*
X121793000Y-104333599D01*
X137812500Y-102187500D02*
X137156249Y-102187500D01*
%TO.N,/MX4+*%
X126643165Y-101252500D02*
X126643165Y-101472500D01*
X125443165Y-101252500D02*
X125443165Y-101472500D01*
X128443165Y-101472500D02*
X128443165Y-101252500D01*
X125683165Y-101712500D02*
X125803165Y-101712500D01*
X128683165Y-101012500D02*
X128803165Y-101012500D01*
X127243165Y-101472500D02*
X127243165Y-101252500D01*
X129850741Y-101712500D02*
X137131249Y-101712500D01*
X124243165Y-101252500D02*
X124243165Y-101472500D01*
X120780000Y-103685665D02*
X121640304Y-102825361D01*
X127843165Y-101252500D02*
X127843165Y-101472500D01*
X137131249Y-101712500D02*
X137156249Y-101687500D01*
X129043165Y-101252500D02*
X129043165Y-101472500D01*
X123643165Y-101472500D02*
X123643165Y-101252500D01*
X129283165Y-101712500D02*
X129403165Y-101712500D01*
X121640304Y-102471809D02*
X121887793Y-102224321D01*
X128083165Y-101712500D02*
X128203165Y-101712500D01*
X122753165Y-101712500D02*
X123403165Y-101712500D01*
X125083165Y-101012500D02*
X125203165Y-101012500D01*
X137156249Y-101687500D02*
X137812500Y-101687500D01*
X122488834Y-101976832D02*
X122753165Y-101712500D01*
X120780000Y-103914000D02*
X120780000Y-103685665D01*
X124483165Y-101712500D02*
X124603165Y-101712500D01*
X126883165Y-101712500D02*
X127003165Y-101712500D01*
X126283165Y-101012500D02*
X126403165Y-101012500D01*
X127483165Y-101012500D02*
X127603165Y-101012500D01*
X126043165Y-101472500D02*
X126043165Y-101252500D01*
X122241347Y-102224321D02*
X122488834Y-101976832D01*
X129403165Y-101712500D02*
X129850741Y-101712500D01*
X124843165Y-101472500D02*
X124843165Y-101252500D01*
X123883165Y-101012500D02*
X124003165Y-101012500D01*
X123643165Y-101252500D02*
G75*
G02*
X123883165Y-101012465I240035J0D01*
G01*
X127603165Y-101012500D02*
G75*
G02*
X127843200Y-101252500I35J-240000D01*
G01*
X121887793Y-102224321D02*
G75*
G02*
X122064589Y-102224302I88407J-88379D01*
G01*
X124243165Y-101472500D02*
G75*
G03*
X124483165Y-101712535I240035J0D01*
G01*
X123403165Y-101712500D02*
G75*
G03*
X123643200Y-101472500I35J240000D01*
G01*
X122064569Y-102224322D02*
G75*
G03*
X122241389Y-102224364I88431J88422D01*
G01*
X128443165Y-101252500D02*
G75*
G02*
X128683165Y-101012465I240035J0D01*
G01*
X121640304Y-102825361D02*
G75*
G03*
X121640277Y-102648612I-88404J88361D01*
G01*
X124003165Y-101012500D02*
G75*
G02*
X124243200Y-101252500I35J-240000D01*
G01*
X128203165Y-101712500D02*
G75*
G03*
X128443200Y-101472500I35J240000D01*
G01*
X126043165Y-101252500D02*
G75*
G02*
X126283165Y-101012465I240035J0D01*
G01*
X127003165Y-101712500D02*
G75*
G03*
X127243200Y-101472500I35J240000D01*
G01*
X124843165Y-101252500D02*
G75*
G02*
X125083165Y-101012465I240035J0D01*
G01*
X127843165Y-101472500D02*
G75*
G03*
X128083165Y-101712535I240035J0D01*
G01*
X125443165Y-101472500D02*
G75*
G03*
X125683165Y-101712535I240035J0D01*
G01*
X128803165Y-101012500D02*
G75*
G02*
X129043200Y-101252500I35J-240000D01*
G01*
X124603165Y-101712500D02*
G75*
G03*
X124843200Y-101472500I35J240000D01*
G01*
X125803165Y-101712500D02*
G75*
G03*
X126043200Y-101472500I35J240000D01*
G01*
X129043165Y-101472500D02*
G75*
G03*
X129283165Y-101712535I240035J0D01*
G01*
X126403165Y-101012500D02*
G75*
G02*
X126643200Y-101252500I35J-240000D01*
G01*
X125203165Y-101012500D02*
G75*
G02*
X125443200Y-101252500I35J-240000D01*
G01*
X126643165Y-101472500D02*
G75*
G03*
X126883165Y-101712535I240035J0D01*
G01*
X127243165Y-101252500D02*
G75*
G02*
X127483165Y-101012465I240035J0D01*
G01*
X121640304Y-102648585D02*
G75*
G02*
X121640307Y-102471812I88396J88385D01*
G01*
%TO.N,/MX2+*%
X127638531Y-98972500D02*
X127638531Y-98752500D01*
X124038531Y-98972500D02*
X124038531Y-98752500D01*
X124278531Y-98512500D02*
X124398531Y-98512500D01*
X127278531Y-99212500D02*
X127398531Y-99212500D01*
X125478531Y-98512500D02*
X125598531Y-98512500D01*
X128478531Y-99212500D02*
X128598531Y-99212500D01*
X126438531Y-98972500D02*
X126438531Y-98752500D01*
X128714717Y-99212500D02*
X137131249Y-99212500D01*
X121500000Y-99212500D02*
X123798531Y-99212500D01*
X127038531Y-98752500D02*
X127038531Y-98972500D01*
X118240000Y-98834000D02*
X121121500Y-98834000D01*
X125238531Y-98972500D02*
X125238531Y-98752500D01*
X121121500Y-98834000D02*
X121500000Y-99212500D01*
X124878531Y-99212500D02*
X124998531Y-99212500D01*
X126078531Y-99212500D02*
X126198531Y-99212500D01*
X125838531Y-98752500D02*
X125838531Y-98972500D01*
X124638531Y-98752500D02*
X124638531Y-98972500D01*
X137156249Y-99187500D02*
X137812500Y-99187500D01*
X127878531Y-98512500D02*
X127998531Y-98512500D01*
X137131249Y-99212500D02*
X137156249Y-99187500D01*
X128598531Y-99212500D02*
X128714717Y-99212500D01*
X128238531Y-98752500D02*
X128238531Y-98972500D01*
X126678531Y-98512500D02*
X126798531Y-98512500D01*
X124038531Y-98752500D02*
G75*
G02*
X124278531Y-98512531I239969J0D01*
G01*
X125838531Y-98972500D02*
G75*
G03*
X126078531Y-99212469I239969J0D01*
G01*
X123798531Y-99212500D02*
G75*
G03*
X124038500Y-98972500I-31J240000D01*
G01*
X127398531Y-99212500D02*
G75*
G03*
X127638500Y-98972500I-31J240000D01*
G01*
X125238531Y-98752500D02*
G75*
G02*
X125478531Y-98512531I239969J0D01*
G01*
X124998531Y-99212500D02*
G75*
G03*
X125238500Y-98972500I-31J240000D01*
G01*
X127638531Y-98752500D02*
G75*
G02*
X127878531Y-98512531I239969J0D01*
G01*
X126198531Y-99212500D02*
G75*
G03*
X126438500Y-98972500I-31J240000D01*
G01*
X127998531Y-98512500D02*
G75*
G02*
X128238500Y-98752500I-31J-240000D01*
G01*
X127038531Y-98972500D02*
G75*
G03*
X127278531Y-99212469I239969J0D01*
G01*
X124638531Y-98972500D02*
G75*
G03*
X124878531Y-99212469I239969J0D01*
G01*
X124398531Y-98512500D02*
G75*
G02*
X124638500Y-98752500I-31J-240000D01*
G01*
X125598531Y-98512500D02*
G75*
G02*
X125838500Y-98752500I-31J-240000D01*
G01*
X126798531Y-98512500D02*
G75*
G02*
X127038500Y-98752500I-31J-240000D01*
G01*
X126438531Y-98752500D02*
G75*
G02*
X126678531Y-98512531I239969J0D01*
G01*
X128238531Y-98972500D02*
G75*
G03*
X128478531Y-99212469I239969J0D01*
G01*
D46*
%TO.N,Net-(Q1-G)*%
X141000000Y-96500000D02*
X141000000Y-90500000D01*
X141500000Y-88062500D02*
X141437500Y-88000000D01*
X141500000Y-90000000D02*
X141500000Y-88062500D01*
X141000000Y-90500000D02*
X141500000Y-90000000D01*
%TO.N,Net-(U2-CLK125)*%
X168858200Y-104141800D02*
X168858200Y-104876035D01*
X168234235Y-105500000D02*
X165500000Y-105500000D01*
X168858200Y-104876035D02*
X168234235Y-105500000D01*
X165000000Y-106000000D02*
X164825000Y-106000000D01*
X165500000Y-105500000D02*
X165000000Y-106000000D01*
%TO.N,Net-(U2-TDI{slash}GPIO7)*%
X171358200Y-92183200D02*
X171358200Y-95358200D01*
X171000000Y-91825000D02*
X171358200Y-92183200D01*
%TO.N,Net-(U2-EECLK{slash}GPIO3)*%
X168860500Y-112845136D02*
X169069864Y-113054500D01*
X169825364Y-111270000D02*
X168860500Y-112234864D01*
X171030136Y-113054500D02*
X172358201Y-111726435D01*
X170050000Y-111270000D02*
X169825364Y-111270000D01*
X172358201Y-111726435D02*
X172358201Y-104141800D01*
X168860500Y-112234864D02*
X168860500Y-112845136D01*
X169069864Y-113054500D02*
X171030136Y-113054500D01*
%TO.N,Net-(U2-TCK{slash}GPIO8)*%
X169500000Y-91825000D02*
X170858199Y-93183199D01*
X170858199Y-93183199D02*
X170858199Y-95358200D01*
%TO.N,Net-(U2-TMS{slash}GPIO9)*%
X168000000Y-91825000D02*
X170358200Y-94183200D01*
X170358200Y-94183200D02*
X170358200Y-95358200D01*
%TO.N,Net-(U2-VDD12_SW_OUT)*%
X168349386Y-105778000D02*
X166500000Y-105778000D01*
X169358199Y-104769187D02*
X168349386Y-105778000D01*
X169358199Y-104141800D02*
X169358199Y-104769187D01*
X166500000Y-105778000D02*
X166500000Y-107000000D01*
D50*
%TO.N,/SSTX+*%
X177458592Y-99906980D02*
X177644592Y-100092980D01*
X181602980Y-100092980D02*
X185000000Y-103490000D01*
X177644592Y-100092980D02*
X181602980Y-100092980D01*
X176000000Y-100000000D02*
X176605999Y-100000000D01*
X176605999Y-100000000D02*
X176699019Y-99906980D01*
X176699019Y-99906980D02*
X177458592Y-99906980D01*
%TO.N,/SSTX-*%
X181729407Y-99781000D02*
X183948407Y-102000000D01*
X177773818Y-99781000D02*
X181729407Y-99781000D01*
X177587818Y-99595000D02*
X177773818Y-99781000D01*
X183948407Y-102000000D02*
X185000000Y-102000000D01*
X176605999Y-99500000D02*
X176700999Y-99595000D01*
X176000000Y-99500000D02*
X176605999Y-99500000D01*
X176700999Y-99595000D02*
X177587818Y-99595000D01*
%TO.N,/XTSS-*%
X188850000Y-102000000D02*
X186550000Y-102000000D01*
%TO.N,/XTSS+*%
X187060000Y-104000000D02*
X186550000Y-103490000D01*
X188850000Y-104000000D02*
X187060000Y-104000000D01*
%TO.N,/D-*%
X188474721Y-104905999D02*
X190437230Y-104906000D01*
X190437230Y-104906000D02*
X191500000Y-103843230D01*
X183467463Y-103189645D02*
X183573529Y-103295711D01*
X191500000Y-103843230D02*
X191500000Y-102150000D01*
X184422057Y-104144239D02*
X184688818Y-104411000D01*
X183361397Y-102447183D02*
X183467463Y-102553249D01*
X180872819Y-100595001D02*
X181027945Y-100750127D01*
X182512869Y-101598655D02*
X182618935Y-101704721D01*
X181770407Y-101492589D02*
X181876473Y-101598655D01*
X176000000Y-100500001D02*
X176605999Y-100500001D01*
X182618935Y-102341117D02*
X182725001Y-102447183D01*
X184879589Y-104411000D02*
X187979722Y-104411000D01*
X184174569Y-103896752D02*
X184422057Y-104144239D01*
X183927081Y-103295711D02*
X184174568Y-103543198D01*
X184688818Y-104411000D02*
X184879589Y-104411000D01*
X191500000Y-102150000D02*
X190350000Y-101000000D01*
X176700999Y-100595001D02*
X180872819Y-100595001D01*
X187979722Y-104411000D02*
X188474721Y-104905999D01*
X176605999Y-100500001D02*
X176700999Y-100595001D01*
X181664341Y-100750127D02*
X181770407Y-100856193D01*
X184174568Y-103543198D02*
G75*
G02*
X184174582Y-103719989I-88368J-88402D01*
G01*
X181770407Y-101174391D02*
G75*
G03*
X181770397Y-101492599I159093J-159109D01*
G01*
X182618935Y-102022919D02*
G75*
G03*
X182618953Y-102341099I159065J-159081D01*
G01*
X181027945Y-100750127D02*
G75*
G03*
X181346143Y-100750127I159099J159099D01*
G01*
X183573529Y-103295711D02*
G75*
G03*
X183750305Y-103295711I88388J88386D01*
G01*
X181346143Y-100750127D02*
G75*
G02*
X181664341Y-100750127I159099J-159099D01*
G01*
X183750305Y-103295711D02*
G75*
G02*
X183927081Y-103295711I88388J-88386D01*
G01*
X182618935Y-101704721D02*
G75*
G02*
X182618915Y-102022899I-159135J-159079D01*
G01*
X183467463Y-102871447D02*
G75*
G03*
X183467509Y-103189599I159137J-159053D01*
G01*
X184174569Y-103719976D02*
G75*
G03*
X184174533Y-103896788I88431J-88424D01*
G01*
X181876473Y-101598655D02*
G75*
G03*
X182194671Y-101598655I159099J159099D01*
G01*
X182194671Y-101598655D02*
G75*
G02*
X182512869Y-101598655I159099J-159099D01*
G01*
X182725001Y-102447183D02*
G75*
G03*
X183043199Y-102447183I159099J159099D01*
G01*
X183467463Y-102553249D02*
G75*
G02*
X183467415Y-102871399I-159063J-159051D01*
G01*
X183043199Y-102447183D02*
G75*
G02*
X183361397Y-102447183I159099J-159099D01*
G01*
X181770407Y-100856193D02*
G75*
G02*
X181770415Y-101174399I-159107J-159107D01*
G01*
%TO.N,/D+*%
X187512803Y-104722980D02*
X188006822Y-105216999D01*
X176700999Y-100905000D02*
X180741612Y-100905000D01*
X184559592Y-104722980D02*
X187512803Y-104722980D01*
X190566051Y-105216999D02*
X192000000Y-103783050D01*
X176605999Y-101000000D02*
X176700999Y-100905000D01*
X192000000Y-103783050D02*
X192000000Y-100650000D01*
X176000000Y-101000000D02*
X176605999Y-101000000D01*
X180741612Y-100905000D02*
X184559592Y-104722980D01*
X192000000Y-100650000D02*
X190350000Y-99000000D01*
X188006822Y-105216999D02*
X190566051Y-105216999D01*
%TO.N,/SSRX-*%
X186942980Y-97907020D02*
X188850000Y-96000000D01*
X177644592Y-97907020D02*
X186942980Y-97907020D01*
X177458592Y-98093020D02*
X177644592Y-97907020D01*
X176000000Y-98000001D02*
X176605999Y-98000001D01*
X176699018Y-98093020D02*
X177458592Y-98093020D01*
X176605999Y-98000001D02*
X176699018Y-98093020D01*
%TO.N,/SSRX+*%
X177587818Y-98405000D02*
X177773818Y-98219000D01*
X187069407Y-98219000D02*
X187288407Y-98000000D01*
X181697769Y-98569000D02*
X181947769Y-98569000D01*
X176605999Y-98500000D02*
X176700999Y-98405000D01*
X187288407Y-98000000D02*
X188850000Y-98000000D01*
X176700999Y-98405000D02*
X177587818Y-98405000D01*
X182897769Y-98569000D02*
X183147769Y-98569000D01*
X182297769Y-98219000D02*
X182547769Y-98219000D01*
X183497769Y-98219000D02*
X183747769Y-98219000D01*
X176000000Y-98500000D02*
X176605999Y-98500000D01*
X177773818Y-98219000D02*
X181347769Y-98219000D01*
X183886986Y-98219000D02*
X187069407Y-98219000D01*
X183747769Y-98219000D02*
X183886986Y-98219000D01*
X182547769Y-98219000D02*
G75*
G02*
X182722800Y-98394000I31J-175000D01*
G01*
X181522769Y-98394000D02*
G75*
G03*
X181697769Y-98569031I175031J0D01*
G01*
X181347769Y-98219000D02*
G75*
G02*
X181522800Y-98394000I31J-175000D01*
G01*
X183147769Y-98569000D02*
G75*
G03*
X183322800Y-98394000I31J175000D01*
G01*
X182122769Y-98394000D02*
G75*
G02*
X182297769Y-98218969I175031J0D01*
G01*
X182722769Y-98394000D02*
G75*
G03*
X182897769Y-98569031I175031J0D01*
G01*
X181947769Y-98569000D02*
G75*
G03*
X182122800Y-98394000I31J175000D01*
G01*
X183322769Y-98394000D02*
G75*
G02*
X183497769Y-98218969I175031J0D01*
G01*
D46*
%TO.N,Net-(U4-XI)*%
X139500000Y-96062501D02*
X139500000Y-96500000D01*
X137437499Y-94000000D02*
X139500000Y-96062501D01*
X130825000Y-91500000D02*
X131025000Y-91700000D01*
X131770000Y-94000000D02*
X137437499Y-94000000D01*
X129270000Y-91500000D02*
X131770000Y-94000000D01*
X129270000Y-91500000D02*
X130825000Y-91500000D01*
%TO.N,Net-(Q1-D)*%
X142000000Y-105000000D02*
X142000000Y-106000000D01*
X139000000Y-104000000D02*
X138000000Y-105000000D01*
X136500000Y-104000000D02*
X135275000Y-104000000D01*
X144687500Y-100187500D02*
X145124999Y-100187500D01*
X143000000Y-96500000D02*
X143000000Y-95843097D01*
X139562500Y-87050000D02*
X138560500Y-88052000D01*
X145500000Y-93050000D02*
X146000000Y-93550000D01*
X139000000Y-103375000D02*
X139000000Y-104000000D01*
X138000000Y-105000000D02*
X138000000Y-105500000D01*
X141000000Y-104000000D02*
X142000000Y-105000000D01*
X146000000Y-93550000D02*
X147000000Y-93550000D01*
X147000000Y-106000000D02*
X147500000Y-106000000D01*
X145912500Y-102187500D02*
X146725000Y-103000000D01*
X137812500Y-98687500D02*
X133187500Y-98687500D01*
X141000000Y-103375000D02*
X141000000Y-104000000D01*
X143500000Y-103375000D02*
X143500000Y-103000000D01*
X138560500Y-88052000D02*
X138560500Y-92560500D01*
X142000000Y-106000000D02*
X141664500Y-106335500D01*
X141664500Y-106335500D02*
X138835500Y-106335500D01*
X136500000Y-88500000D02*
X138112500Y-88500000D01*
X147500000Y-106000000D02*
X148000000Y-105500000D01*
X137812500Y-101187500D02*
X134710500Y-101187500D01*
X136550000Y-87050000D02*
X136500000Y-87000000D01*
X138835500Y-106335500D02*
X138000000Y-105500000D01*
X138560500Y-92560500D02*
X140000000Y-94000000D01*
X150500000Y-98725000D02*
X150500000Y-96000000D01*
X138000000Y-105500000D02*
X136500000Y-104000000D01*
X140500000Y-94500000D02*
X140500000Y-96500000D01*
X143000000Y-95843097D02*
X145293097Y-93550000D01*
X145124999Y-100187500D02*
X145437499Y-100500000D01*
X138112500Y-88500000D02*
X139562500Y-87050000D01*
X144687500Y-102187500D02*
X145912500Y-102187500D01*
X145437499Y-100500000D02*
X148725000Y-100500000D01*
X150500000Y-96000000D02*
X149000000Y-94500000D01*
X145293097Y-93550000D02*
X147000000Y-93550000D01*
X140000000Y-94000000D02*
X140500000Y-94500000D01*
X135275000Y-104000000D02*
X134500000Y-103225000D01*
X139562500Y-87050000D02*
X136550000Y-87050000D01*
X148725000Y-100500000D02*
X150500000Y-98725000D01*
X144000000Y-106000000D02*
X142000000Y-106000000D01*
%TO.N,Net-(J2-MXCT2)*%
X118240000Y-94770000D02*
X118240000Y-89535000D01*
X118240000Y-89535000D02*
X118500000Y-89275000D01*
%TO.N,Net-(J2-MXCT4)*%
X120780000Y-105946000D02*
X120780000Y-110280000D01*
X120780000Y-110280000D02*
X121000000Y-110500000D01*
%TO.N,Net-(J2-MXCT3)*%
X118240000Y-110240000D02*
X118500000Y-110500000D01*
X118240000Y-104930000D02*
X118240000Y-110240000D01*
%TO.N,Net-(J2-MXCT1)*%
X120780000Y-93754000D02*
X120780000Y-89495000D01*
X120780000Y-89495000D02*
X121000000Y-89275000D01*
%TO.N,Net-(U4-ISET)*%
X136825000Y-94825000D02*
X138500000Y-96500000D01*
X136500000Y-94825000D02*
X136825000Y-94825000D01*
%TO.N,Net-(U2-TX_CTL)*%
X167216400Y-100000000D02*
X168060198Y-100000000D01*
X144687500Y-102687500D02*
X144687500Y-102688100D01*
X144687500Y-102688100D02*
X144613100Y-102762500D01*
%TO.N,Net-(U2-RXD3)*%
X145954917Y-101687500D02*
X146069835Y-101572582D01*
X151500000Y-103000000D02*
X152675000Y-103000000D01*
X167808949Y-104141800D02*
X167730797Y-104063648D01*
X150072582Y-101572582D02*
X151500000Y-103000000D01*
X146069835Y-101572582D02*
X150072582Y-101572582D01*
X144687500Y-101687500D02*
X145954917Y-101687500D01*
X167858200Y-104141800D02*
X167808949Y-104141800D01*
%TO.N,Net-(U2-RXC)*%
X166500001Y-101499999D02*
X167216400Y-101499999D01*
X166000000Y-102000000D02*
X166500001Y-101499999D01*
X165500000Y-102000000D02*
X166000000Y-102000000D01*
%TO.N,Net-(U2-RXD2)*%
X167216400Y-103500000D02*
X167077403Y-103500000D01*
X144687500Y-101187500D02*
X145394451Y-101187500D01*
X152414500Y-101239500D02*
X152675000Y-101500000D01*
X148154343Y-101032125D02*
X148361718Y-101239500D01*
X145394451Y-101187500D02*
X145549826Y-101032125D01*
X167077403Y-103500000D02*
X167000000Y-103577403D01*
X145549826Y-101032125D02*
X148154343Y-101032125D01*
X148361718Y-101239500D02*
X152414500Y-101239500D01*
%TO.N,Net-(U2-RXD1)*%
X144814171Y-99814171D02*
X144687500Y-99687500D01*
X159250000Y-98750000D02*
X158000000Y-100000000D01*
X146685835Y-99814171D02*
X144814171Y-99814171D01*
X167807783Y-103000001D02*
X168060201Y-102747583D01*
X167216400Y-103000001D02*
X167807783Y-103000001D01*
%TO.N,Net-(U2-TXD3)*%
X143027001Y-104027000D02*
X156973000Y-104027000D01*
X143000000Y-103375000D02*
X143000000Y-103999999D01*
X156973000Y-104027000D02*
X163500000Y-97500000D01*
X163500000Y-97500000D02*
X167216400Y-97499999D01*
X143000000Y-103999999D02*
X143027001Y-104027000D01*
%TO.N,Net-(U2-RXD0)*%
X166000000Y-102750003D02*
X166250003Y-102500000D01*
X146747034Y-99066671D02*
X146683332Y-99066671D01*
X145459887Y-99187500D02*
X144687500Y-99187500D01*
X158500000Y-96569500D02*
X160000000Y-98069500D01*
X146683332Y-99066671D02*
X146235503Y-99514500D01*
X146235503Y-99514500D02*
X145786887Y-99514500D01*
X166000000Y-103000000D02*
X166000000Y-102750003D01*
X158500000Y-95650000D02*
X158500000Y-96569500D01*
X166250003Y-102500000D02*
X167216400Y-102500000D01*
X146747034Y-99066671D02*
X146813705Y-99000000D01*
X145786887Y-99514500D02*
X145459887Y-99187500D01*
%TO.N,Net-(U2-RX_CTL)*%
X144687500Y-98687500D02*
X145687500Y-98687500D01*
X167216400Y-102000001D02*
X168000000Y-102000000D01*
X157000000Y-95500000D02*
X157000000Y-97500000D01*
X145687500Y-98687500D02*
X146000000Y-99000000D01*
%TO.N,Net-(U2-TXD1)*%
X163500000Y-98500000D02*
X167216400Y-98500000D01*
X142000000Y-103786302D02*
X142796698Y-104583000D01*
X142000000Y-103375000D02*
X142000000Y-103786302D01*
X142000000Y-103375000D02*
X141949152Y-103425848D01*
X142796698Y-104583000D02*
X157417000Y-104583000D01*
X157417000Y-104583000D02*
X163500000Y-98500000D01*
%TO.N,Net-(U2-TXC)*%
X144468373Y-103375000D02*
X144495070Y-103401697D01*
X166392696Y-100321235D02*
X166670134Y-100321235D01*
X166670134Y-100321235D02*
X166848900Y-100500001D01*
X166848900Y-100500001D02*
X167216400Y-100500001D01*
X144000000Y-103425000D02*
X144075000Y-103500000D01*
X144000000Y-103375000D02*
X144468373Y-103375000D01*
X144000000Y-103375000D02*
X144000000Y-103425000D01*
%TO.N,Net-(U2-TXD0)*%
X158139000Y-104861000D02*
X162760500Y-100239500D01*
X163291008Y-100239500D02*
X165708992Y-100239500D01*
X141500000Y-103375000D02*
X141500000Y-103812499D01*
X166448492Y-99500000D02*
X167216400Y-99500000D01*
X141500000Y-103375000D02*
X141434652Y-103440348D01*
X165708992Y-100239500D02*
X166448492Y-99500000D01*
X141500000Y-103812499D02*
X142548501Y-104861000D01*
X142548501Y-104861000D02*
X158139000Y-104861000D01*
X162760500Y-100239500D02*
X163291008Y-100239500D01*
%TO.N,Net-(U2-TXD2)*%
X142500000Y-103893151D02*
X142911849Y-104305000D01*
X142911849Y-104305000D02*
X157195000Y-104305000D01*
X142500000Y-103375000D02*
X142500000Y-103893151D01*
X163499999Y-98000001D02*
X167216400Y-98000001D01*
X157195000Y-104305000D02*
X163499999Y-98000001D01*
%TO.N,Net-(U2-PHY_INT_N)*%
X146213696Y-95500000D02*
X148500000Y-93213696D01*
X174858201Y-104141800D02*
X174858201Y-104602200D01*
X144000000Y-95500000D02*
X146213696Y-95500000D01*
X148500000Y-93213696D02*
X148500000Y-92650000D01*
X174858201Y-104602200D02*
X174858201Y-103485473D01*
X143500000Y-96000000D02*
X144000000Y-95500000D01*
X143500000Y-96500000D02*
X143500000Y-96000000D01*
%TO.N,Net-(J2-LED1+)*%
X123574000Y-93500000D02*
X123320000Y-93754000D01*
X126675000Y-93500000D02*
X123574000Y-93500000D01*
%TO.N,Net-(U2-MDIO)*%
X166171736Y-89221000D02*
X166828264Y-89221000D01*
X153267500Y-89232500D02*
X153278000Y-89222000D01*
X144000000Y-96500000D02*
X145606848Y-96500000D01*
X172358201Y-92518307D02*
X172260500Y-92616008D01*
X167500000Y-89222000D02*
X171603848Y-89222000D01*
X172260500Y-93483992D02*
X172358201Y-93581693D01*
X172358201Y-90968307D02*
X172260500Y-91066008D01*
X153278000Y-89222000D02*
X166170735Y-89222000D01*
X167500000Y-88325000D02*
X167500000Y-89222000D01*
X152874349Y-89232500D02*
X153267500Y-89232500D01*
X172260500Y-91933992D02*
X172358201Y-92031693D01*
X171603848Y-89222000D02*
X172358201Y-89976353D01*
X166829265Y-89222000D02*
X167500000Y-89222000D01*
X166828264Y-89221000D02*
X166829265Y-89222000D01*
X145606848Y-96500000D02*
X152874349Y-89232500D01*
X172260500Y-91066008D02*
X172260500Y-91933992D01*
X172358201Y-93581693D02*
X172358201Y-95358200D01*
X166170735Y-89222000D02*
X166171736Y-89221000D01*
X172358201Y-89976353D02*
X172358201Y-90968307D01*
X172260500Y-92616008D02*
X172260500Y-93483992D01*
X172358201Y-92031693D02*
X172358201Y-92518307D01*
%TO.N,Net-(J2-LED2+)*%
X123414000Y-103500000D02*
X123320000Y-103406000D01*
X126675000Y-103500000D02*
X123414000Y-103500000D01*
%TO.N,Net-(U2-MDC)*%
X171858200Y-89895756D02*
X171858200Y-95358200D01*
X152989500Y-89510500D02*
X166275387Y-89510500D01*
X166286887Y-89499000D02*
X166713113Y-89499000D01*
X166724613Y-89510500D02*
X171472944Y-89510500D01*
X171472944Y-89510500D02*
X171858200Y-89895756D01*
X144687500Y-97187500D02*
X145312500Y-97187500D01*
X145312500Y-97187500D02*
X152989500Y-89510500D01*
X166713113Y-89499000D02*
X166724613Y-89510500D01*
X166275387Y-89510500D02*
X166286887Y-89499000D01*
%TO.N,Net-(J2-LED1-)*%
X140500000Y-103375000D02*
X140500000Y-104155488D01*
X140500000Y-104155488D02*
X140922256Y-104577744D01*
%TO.N,Net-(J2-LED2-)*%
X139000000Y-109500000D02*
X135500000Y-109500000D01*
X139500000Y-103375000D02*
X139500000Y-104155488D01*
X139500000Y-104155488D02*
X139077744Y-104577744D01*
%TO.N,Net-(U2-PHY_RESET_N)*%
X141500000Y-96500000D02*
X141500000Y-90862556D01*
X175358200Y-104141800D02*
X175441038Y-104141800D01*
X141500000Y-90862556D02*
X142500000Y-89862556D01*
X142500000Y-89862556D02*
X142500000Y-87000000D01*
X175441038Y-104141800D02*
X175471249Y-104111589D01*
%TO.N,Net-(U4-CLK125_NDO{slash}LED_MODE)*%
X142000000Y-93150000D02*
X142500000Y-92650000D01*
X142000000Y-96500000D02*
X142000000Y-93150000D01*
%TO.N,Net-(U4-XO)*%
X133225000Y-90000000D02*
X134950000Y-90000000D01*
X140000000Y-96062501D02*
X140000000Y-96500000D01*
X139000000Y-95062501D02*
X140000000Y-96062501D01*
X134950000Y-90000000D02*
X139000000Y-94050000D01*
X139000000Y-94050000D02*
X139000000Y-95062501D01*
%TD*%
M02*
