M48
; DRILL file {KiCad 9.0.7} date 2026-03-29T23:04:40+0530
; FORMAT={-:-/ absolute / metric / decimal}
; #@! TF.CreationDate,2026-03-29T23:04:40+05:30
; #@! TF.GenerationSoftware,Kicad,Pcbnew,9.0.7
; #@! TF.FileFunction,Plated,1,4,PTH
FMAT,2
METRIC
; #@! TA.AperFunction,Plated,PTH,ViaDrill
T1C0.200
; #@! TA.AperFunction,Plated,PTH,ComponentDrill
T2C0.200
; #@! TA.AperFunction,Plated,PTH,ViaDrill
T3C0.250
; #@! TA.AperFunction,Plated,PTH,ViaDrill
T4C0.300
; #@! TA.AperFunction,Plated,PTH,ComponentDrill
T5C0.600
; #@! TA.AperFunction,Plated,PTH,ComponentDrill
T6C0.700
; #@! TA.AperFunction,Plated,PTH,ComponentDrill
T7C0.890
; #@! TA.AperFunction,Plated,PTH,ComponentDrill
T8C1.025
; #@! TA.AperFunction,Plated,PTH,ComponentDrill
T9C1.570
%
G90
G05
T1
X143.5Y-103.0
X144.0Y-106.0
X147.0Y-106.0
X148.0Y-105.5
X174.0Y-106.0
X179.5Y-102.0
X184.0Y-106.0
X194.15Y-108.85
T2
X183.137Y-109.3
X183.137Y-110.3
X183.137Y-111.3
X184.137Y-109.3
X184.137Y-110.3
X184.137Y-111.3
X185.137Y-109.3
X185.137Y-110.3
X185.137Y-111.3
T3
X118.5Y-87.5
X118.5Y-112.0
X121.0Y-87.5
X121.0Y-112.0
X127.5Y-91.5
X128.5Y-93.5
X128.5Y-103.5
X131.0Y-90.0
X133.0Y-95.0
X133.0Y-96.775
X133.188Y-98.688
X133.5Y-91.5
X134.5Y-96.5
X134.5Y-103.225
X134.5Y-105.0
X134.71Y-101.188
X135.0Y-87.0
X135.0Y-88.5
X135.5Y-109.5
X136.0Y-103.225
X136.0Y-105.0
X136.387Y-96.612
X136.5Y-90.0
X136.5Y-93.0
X138.0Y-107.0
X139.0Y-109.5
X139.0Y-111.013
X139.078Y-104.578
X139.5Y-89.0
X140.0Y-92.5
X140.0Y-94.0
X140.0Y-105.5
X140.0Y-107.0
X140.922Y-104.578
X141.0Y-110.5
X141.0Y-112.0
X141.25Y-99.938
X142.0Y-107.5
X142.5Y-87.0
X142.5Y-91.0
X144.0Y-92.0
X144.0Y-93.563
X144.0Y-95.5
X144.0Y-107.5
X144.495Y-103.402
X144.613Y-102.762
X145.5Y-93.05
X145.55Y-101.032
X145.794Y-97.597
X146.0Y-99.0
X146.07Y-101.573
X146.686Y-99.814
X146.725Y-98.0
X146.725Y-103.0
X146.747Y-99.067
X146.887Y-91.887
X147.0Y-93.55
X148.422Y-90.422
X148.5Y-103.0
X148.725Y-100.5
X149.0Y-94.5
X149.5Y-95.986
X150.5Y-100.5
X154.5Y-101.5
X154.5Y-103.0
X157.0Y-93.5
X157.0Y-97.5
X158.0Y-101.65
X158.5Y-94.0
X159.25Y-98.75
X160.0Y-92.5
X160.0Y-98.069
X161.175Y-96.486
X161.775Y-92.5
X162.201Y-101.799
X163.0Y-104.5
X163.0Y-106.0
X163.5Y-90.225
X164.0Y-99.5
X164.073Y-96.927
X164.887Y-104.612
X165.0Y-111.5
X165.436Y-101.0
X165.5Y-102.0
X166.0Y-103.0
X166.393Y-100.321
X166.5Y-90.013
X167.0Y-103.577
X167.5Y-85.986
X167.731Y-104.064
X168.0Y-99.0
X168.0Y-102.0
X168.0Y-106.95
X168.0Y-108.436
X168.0Y-110.0
X168.0Y-111.5
X168.06Y-100.0
X168.06Y-102.748
X169.0Y-88.0
X169.5Y-90.175
X171.608Y-99.75
X172.5Y-85.986
X173.0Y-91.5
X174.345Y-88.5
X174.858Y-103.485
X175.0Y-110.0
X175.0Y-114.0
X175.471Y-104.112
X175.5Y-106.0
X175.5Y-107.55
X176.0Y-90.0
X176.0Y-91.775
X176.108Y-103.627
X177.0Y-97.49
X177.612Y-95.112
X177.725Y-92.0
X177.725Y-102.0
X178.5Y-86.5
X179.5Y-92.0
X179.5Y-93.5
X179.5Y-95.0
X180.0Y-112.5
X181.775Y-108.975
X190.0Y-110.0
T4
X195.388Y-108.85
T6
X188.85Y-96.0
X188.85Y-98.0
X188.85Y-100.0
X188.85Y-102.0
X188.85Y-104.0
X190.35Y-96.5
X190.35Y-99.0
X190.35Y-101.0
X190.35Y-103.5
T7
X118.24Y-94.77
X118.24Y-96.802
X118.24Y-98.834
X118.24Y-100.866
X118.24Y-102.898
X118.24Y-104.93
X120.78Y-93.754
X120.78Y-95.786
X120.78Y-97.818
X120.78Y-101.882
X120.78Y-103.914
X120.78Y-105.946
T8
X123.32Y-93.754
X123.32Y-96.294
X123.32Y-103.406
X123.32Y-105.946
T9
X99.825Y-91.785
X99.825Y-107.914
T5
G00X189.05Y-93.6
M15
G01X190.15Y-93.6
M16
G05
G00X189.05Y-106.4
M15
G01X190.15Y-106.4
M16
G05
G00X197.7Y-93.6
M15
G01X198.5Y-93.6
M16
G05
G00X197.7Y-106.4
M15
G01X198.5Y-106.4
M16
G05
M30
