%TF.GenerationSoftware,KiCad,Pcbnew,9.0.7*%
%TF.CreationDate,2026-03-29T23:01:16+05:30*%
%TF.ProjectId,USB3_to_RGMII_LAN7801,55534233-5f74-46f5-9f52-474d49495f4c,rev?*%
%TF.SameCoordinates,Original*%
%TF.FileFunction,Soldermask,Top*%
%TF.FilePolarity,Negative*%
%FSLAX46Y46*%
G04 Gerber Fmt 4.6, Leading zero omitted, Abs format (unit mm)*
G04 Created by KiCad (PCBNEW 9.0.7) date 2026-03-29 23:01:16*
%MOMM*%
%LPD*%
G01*
G04 APERTURE LIST*
G04 Aperture macros list*
%AMRoundRect*
0 Rectangle with rounded corners*
0 $1 Rounding radius*
0 $2 $3 $4 $5 $6 $7 $8 $9 X,Y pos of 4 corners*
0 Add a 4 corners polygon primitive as box body*
4,1,4,$2,$3,$4,$5,$6,$7,$8,$9,$2,$3,0*
0 Add four circle primitives for the rounded corners*
1,1,$1+$1,$2,$3*
1,1,$1+$1,$4,$5*
1,1,$1+$1,$6,$7*
1,1,$1+$1,$8,$9*
0 Add four rect primitives between the rounded corners*
20,1,$1+$1,$2,$3,$4,$5,0*
20,1,$1+$1,$4,$5,$6,$7,0*
20,1,$1+$1,$6,$7,$8,$9,0*
20,1,$1+$1,$8,$9,$2,$3,0*%
G04 Aperture macros list end*
%ADD10RoundRect,0.225000X0.225000X0.250000X-0.225000X0.250000X-0.225000X-0.250000X0.225000X-0.250000X0*%
%ADD11RoundRect,0.225000X-0.225000X-0.250000X0.225000X-0.250000X0.225000X0.250000X-0.225000X0.250000X0*%
%ADD12RoundRect,0.200000X-0.200000X-0.275000X0.200000X-0.275000X0.200000X0.275000X-0.200000X0.275000X0*%
%ADD13RoundRect,0.200000X-0.275000X0.200000X-0.275000X-0.200000X0.275000X-0.200000X0.275000X0.200000X0*%
%ADD14RoundRect,0.225000X-0.250000X0.225000X-0.250000X-0.225000X0.250000X-0.225000X0.250000X0.225000X0*%
%ADD15RoundRect,0.225000X0.250000X-0.225000X0.250000X0.225000X-0.250000X0.225000X-0.250000X-0.225000X0*%
%ADD16RoundRect,0.250000X0.350000X-0.350000X0.350000X0.350000X-0.350000X0.350000X-0.350000X-0.350000X0*%
%ADD17C,1.200000*%
%ADD18O,2.400000X1.200000*%
%ADD19O,2.100000X1.200000*%
%ADD20RoundRect,0.150000X-0.587500X-0.150000X0.587500X-0.150000X0.587500X0.150000X-0.587500X0.150000X0*%
%ADD21RoundRect,0.250000X0.450000X0.350000X-0.450000X0.350000X-0.450000X-0.350000X0.450000X-0.350000X0*%
%ADD22RoundRect,0.093750X-0.093750X-0.106250X0.093750X-0.106250X0.093750X0.106250X-0.093750X0.106250X0*%
%ADD23R,1.000000X1.600000*%
%ADD24R,0.807999X0.254800*%
%ADD25R,0.254800X0.807999*%
%ADD26R,6.096000X6.096000*%
%ADD27RoundRect,0.200000X0.275000X-0.200000X0.275000X0.200000X-0.275000X0.200000X-0.275000X-0.200000X0*%
%ADD28RoundRect,0.250000X-0.450000X-0.350000X0.450000X-0.350000X0.450000X0.350000X-0.450000X0.350000X0*%
%ADD29RoundRect,0.062500X-0.375000X-0.062500X0.375000X-0.062500X0.375000X0.062500X-0.375000X0.062500X0*%
%ADD30RoundRect,0.062500X-0.062500X-0.375000X0.062500X-0.375000X0.062500X0.375000X-0.062500X0.375000X0*%
%ADD31R,5.150000X5.150000*%
%ADD32RoundRect,0.087500X-0.425000X-0.087500X0.425000X-0.087500X0.425000X0.087500X-0.425000X0.087500X0*%
%ADD33RoundRect,0.087500X-0.087500X-0.425000X0.087500X-0.425000X0.087500X0.425000X-0.087500X0.425000X0*%
%ADD34R,3.150000X3.150000*%
%ADD35RoundRect,0.150000X-0.825000X-0.150000X0.825000X-0.150000X0.825000X0.150000X-0.825000X0.150000X0*%
%ADD36C,3.200000*%
%ADD37R,1.524000X1.524000*%
%ADD38C,1.524000*%
%ADD39C,1.800000*%
%ADD40C,2.630000*%
%ADD41C,2.610000*%
%ADD42RoundRect,0.218750X-0.256250X0.218750X-0.256250X-0.218750X0.256250X-0.218750X0.256250X0.218750X0*%
G04 APERTURE END LIST*
D10*
%TO.C,C25*%
X170775000Y-88000000D03*
X169225000Y-88000000D03*
%TD*%
D11*
%TO.C,C49*%
X134950000Y-90000000D03*
X136500000Y-90000000D03*
%TD*%
D12*
%TO.C,R3*%
X177675000Y-96500000D03*
X179325000Y-96500000D03*
%TD*%
D11*
%TO.C,C18*%
X177725000Y-102000000D03*
X179275000Y-102000000D03*
%TD*%
D12*
%TO.C,R33*%
X126675000Y-103500000D03*
X128325000Y-103500000D03*
%TD*%
D13*
%TO.C,R27*%
X141000000Y-110500000D03*
X141000000Y-112150000D03*
%TD*%
D14*
%TO.C,C48*%
X121000000Y-87725000D03*
X121000000Y-89275000D03*
%TD*%
D10*
%TO.C,C44*%
X136500000Y-88500000D03*
X134950000Y-88500000D03*
%TD*%
%TO.C,C7*%
X164775000Y-104500000D03*
X163225000Y-104500000D03*
%TD*%
D14*
%TO.C,C29*%
X136000000Y-103225000D03*
X136000000Y-104775000D03*
%TD*%
D15*
%TO.C,C32*%
X144000000Y-93500000D03*
X144000000Y-91950000D03*
%TD*%
D11*
%TO.C,C10*%
X177725000Y-95000000D03*
X179275000Y-95000000D03*
%TD*%
D12*
%TO.C,R1*%
X177675000Y-93500000D03*
X179325000Y-93500000D03*
%TD*%
D16*
%TO.C,J1*%
X190350000Y-103500000D03*
D17*
X190350000Y-101000000D03*
X190350000Y-99000000D03*
X190350000Y-96500000D03*
X188850000Y-96000000D03*
X188850000Y-98000000D03*
X188850000Y-100000000D03*
X188850000Y-102000000D03*
X188850000Y-104000000D03*
D18*
X189600000Y-106400000D03*
D19*
X198100000Y-106400000D03*
D18*
X189600000Y-93600000D03*
D19*
X198100000Y-93600000D03*
%TD*%
D20*
%TO.C,Q1*%
X139562500Y-87050000D03*
X139562500Y-88950000D03*
X141437500Y-88000000D03*
%TD*%
D13*
%TO.C,R25*%
X158000000Y-100000000D03*
X158000000Y-101650000D03*
%TD*%
D21*
%TO.C,Y1*%
X175000000Y-86500000D03*
X172800000Y-86500000D03*
X172800000Y-88200000D03*
X175000000Y-88200000D03*
%TD*%
D15*
%TO.C,C21*%
X165000000Y-91775000D03*
X165000000Y-90225000D03*
%TD*%
D10*
%TO.C,C1*%
X185550000Y-106000000D03*
X184000000Y-106000000D03*
%TD*%
D22*
%TO.C,U5*%
X193500000Y-108200000D03*
X193500000Y-108850000D03*
X193500000Y-109500000D03*
X195275000Y-109500000D03*
X195275000Y-108850000D03*
X195275000Y-108200000D03*
D23*
X194387500Y-108850000D03*
%TD*%
D24*
%TO.C,U2*%
X167216400Y-96000000D03*
X167216400Y-96499999D03*
X167216400Y-97000000D03*
X167216400Y-97499999D03*
X167216400Y-98000001D03*
X167216400Y-98500000D03*
X167216400Y-98999999D03*
X167216400Y-99500000D03*
X167216400Y-100000000D03*
X167216400Y-100500001D03*
X167216400Y-101000000D03*
X167216400Y-101499999D03*
X167216400Y-102000001D03*
X167216400Y-102500000D03*
X167216400Y-103000001D03*
X167216400Y-103500000D03*
D25*
X167858200Y-104141800D03*
X168358199Y-104141800D03*
X168858200Y-104141800D03*
X169358199Y-104141800D03*
X169858201Y-104141800D03*
X170358200Y-104141800D03*
X170858199Y-104141800D03*
X171358200Y-104141800D03*
X171858200Y-104141800D03*
X172358201Y-104141800D03*
X172858200Y-104141800D03*
X173358199Y-104141800D03*
X173858201Y-104141800D03*
X174358200Y-104141800D03*
X174858201Y-104141800D03*
X175358200Y-104141800D03*
D24*
X176000000Y-103500000D03*
X176000000Y-103000001D03*
X176000000Y-102500000D03*
X176000000Y-102000001D03*
X176000000Y-101499999D03*
X176000000Y-101000000D03*
X176000000Y-100500001D03*
X176000000Y-100000000D03*
X176000000Y-99500000D03*
X176000000Y-98999999D03*
X176000000Y-98500000D03*
X176000000Y-98000001D03*
X176000000Y-97499999D03*
X176000000Y-97000000D03*
X176000000Y-96499999D03*
X176000000Y-96000000D03*
D25*
X175358200Y-95358200D03*
X174858201Y-95358200D03*
X174358200Y-95358200D03*
X173858201Y-95358200D03*
X173358199Y-95358200D03*
X172858200Y-95358200D03*
X172358201Y-95358200D03*
X171858200Y-95358200D03*
X171358200Y-95358200D03*
X170858199Y-95358200D03*
X170358200Y-95358200D03*
X169858201Y-95358200D03*
X169358199Y-95358200D03*
X168858200Y-95358200D03*
X168358199Y-95358200D03*
X167858200Y-95358200D03*
D26*
X171608200Y-99750000D03*
%TD*%
D27*
%TO.C,R22*%
X136500000Y-94825000D03*
X136500000Y-93175000D03*
%TD*%
%TO.C,R5*%
X171000000Y-91825000D03*
X171000000Y-90175000D03*
%TD*%
D10*
%TO.C,C43*%
X136500000Y-87000000D03*
X134950000Y-87000000D03*
%TD*%
D11*
%TO.C,C11*%
X177725000Y-92000000D03*
X179275000Y-92000000D03*
%TD*%
D15*
%TO.C,C15*%
X173000000Y-93050000D03*
X173000000Y-91500000D03*
%TD*%
D27*
%TO.C,R6*%
X169500000Y-91825000D03*
X169500000Y-90175000D03*
%TD*%
D14*
%TO.C,C13*%
X168000000Y-106950000D03*
X168000000Y-108500000D03*
%TD*%
D27*
%TO.C,R28*%
X142500000Y-92650000D03*
X142500000Y-91000000D03*
%TD*%
D14*
%TO.C,C40*%
X134500000Y-103225000D03*
X134500000Y-104775000D03*
%TD*%
%TO.C,C39*%
X138000000Y-105500000D03*
X138000000Y-107050000D03*
%TD*%
D11*
%TO.C,C31*%
X146725000Y-98000000D03*
X148275000Y-98000000D03*
%TD*%
D12*
%TO.C,R24*%
X152675000Y-101500000D03*
X154325000Y-101500000D03*
%TD*%
D10*
%TO.C,C23*%
X186550000Y-103490000D03*
X185000000Y-103490000D03*
%TD*%
D15*
%TO.C,C45*%
X121000000Y-112050000D03*
X121000000Y-110500000D03*
%TD*%
%TO.C,C46*%
X118500000Y-112050000D03*
X118500000Y-110500000D03*
%TD*%
D12*
%TO.C,R29*%
X147175000Y-96500000D03*
X148825000Y-96500000D03*
%TD*%
D15*
%TO.C,C42*%
X140000000Y-94000000D03*
X140000000Y-92450000D03*
%TD*%
D27*
%TO.C,R31*%
X157000000Y-95500000D03*
X157000000Y-93850000D03*
%TD*%
D14*
%TO.C,C38*%
X142000000Y-106000000D03*
X142000000Y-107550000D03*
%TD*%
%TO.C,C8*%
X174000000Y-106000000D03*
X174000000Y-107550000D03*
%TD*%
D11*
%TO.C,C36*%
X146725000Y-103000000D03*
X148275000Y-103000000D03*
%TD*%
D15*
%TO.C,C34*%
X147000000Y-93550000D03*
X147000000Y-92000000D03*
%TD*%
D14*
%TO.C,C30*%
X140000000Y-105500000D03*
X140000000Y-107050000D03*
%TD*%
D28*
%TO.C,Y2*%
X131025000Y-91700000D03*
X133225000Y-91700000D03*
X133225000Y-90000000D03*
X131025000Y-90000000D03*
%TD*%
D27*
%TO.C,R21*%
X167500000Y-88325000D03*
X167500000Y-86675000D03*
%TD*%
D29*
%TO.C,U4*%
X137812500Y-97187500D03*
X137812500Y-97687500D03*
X137812500Y-98187500D03*
X137812500Y-98687500D03*
X137812500Y-99187500D03*
X137812500Y-99687500D03*
X137812500Y-100187500D03*
X137812500Y-100687500D03*
X137812500Y-101187500D03*
X137812500Y-101687500D03*
X137812500Y-102187500D03*
X137812500Y-102687500D03*
D30*
X138500000Y-103375000D03*
X139000000Y-103375000D03*
X139500000Y-103375000D03*
X140000000Y-103375000D03*
X140500000Y-103375000D03*
X141000000Y-103375000D03*
X141500000Y-103375000D03*
X142000000Y-103375000D03*
X142500000Y-103375000D03*
X143000000Y-103375000D03*
X143500000Y-103375000D03*
X144000000Y-103375000D03*
D29*
X144687500Y-102687500D03*
X144687500Y-102187500D03*
X144687500Y-101687500D03*
X144687500Y-101187500D03*
X144687500Y-100687500D03*
X144687500Y-100187500D03*
X144687500Y-99687500D03*
X144687500Y-99187500D03*
X144687500Y-98687500D03*
X144687500Y-98187500D03*
X144687500Y-97687500D03*
X144687500Y-97187500D03*
D30*
X144000000Y-96500000D03*
X143500000Y-96500000D03*
X143000000Y-96500000D03*
X142500000Y-96500000D03*
X142000000Y-96500000D03*
X141500000Y-96500000D03*
X141000000Y-96500000D03*
X140500000Y-96500000D03*
X140000000Y-96500000D03*
X139500000Y-96500000D03*
X139000000Y-96500000D03*
X138500000Y-96500000D03*
D31*
X141250000Y-99937500D03*
%TD*%
D10*
%TO.C,C28*%
X136275000Y-96500000D03*
X134725000Y-96500000D03*
%TD*%
D11*
%TO.C,C26*%
X161225000Y-95500000D03*
X162775000Y-95500000D03*
%TD*%
D10*
%TO.C,C22*%
X186550000Y-102000000D03*
X185000000Y-102000000D03*
%TD*%
D32*
%TO.C,U1*%
X181775000Y-109000000D03*
X181775000Y-109650000D03*
X181775000Y-110300000D03*
X181775000Y-110950000D03*
X181775000Y-111600000D03*
D33*
X182837500Y-112662500D03*
X183487500Y-112662500D03*
X184137500Y-112662500D03*
X184787500Y-112662500D03*
X185437500Y-112662500D03*
D32*
X186500000Y-111600000D03*
X186500000Y-110950000D03*
X186500000Y-110300000D03*
X186500000Y-109650000D03*
X186500000Y-109000000D03*
D33*
X185437500Y-107937500D03*
X184787500Y-107937500D03*
X184137500Y-107937500D03*
X183487500Y-107937500D03*
X182837500Y-107937500D03*
D34*
X184137500Y-110300000D03*
%TD*%
D14*
%TO.C,C37*%
X144000000Y-106000000D03*
X144000000Y-107550000D03*
%TD*%
D15*
%TO.C,C41*%
X133000000Y-96775000D03*
X133000000Y-95225000D03*
%TD*%
D14*
%TO.C,C47*%
X118500000Y-87725000D03*
X118500000Y-89275000D03*
%TD*%
D35*
%TO.C,U3*%
X170050000Y-110000000D03*
X170050000Y-111270000D03*
X170050000Y-112540000D03*
X170050000Y-113810000D03*
X175000000Y-113810000D03*
X175000000Y-112540000D03*
X175000000Y-111270000D03*
X175000000Y-110000000D03*
%TD*%
D15*
%TO.C,C27*%
X163500000Y-91775000D03*
X163500000Y-90225000D03*
%TD*%
%TO.C,C9*%
X176000000Y-91775000D03*
X176000000Y-90225000D03*
%TD*%
D10*
%TO.C,C5*%
X165275000Y-99500000D03*
X163725000Y-99500000D03*
%TD*%
D12*
%TO.C,R2*%
X161175000Y-94000000D03*
X162825000Y-94000000D03*
%TD*%
D13*
%TO.C,R30*%
X139000000Y-109500000D03*
X139000000Y-111150000D03*
%TD*%
D36*
%TO.C,J2*%
X103000000Y-106200000D03*
X103000000Y-93500000D03*
D37*
X118240000Y-104930000D03*
D38*
X118240000Y-102898000D03*
X118240000Y-100866000D03*
X118240000Y-98834000D03*
X118240000Y-96802000D03*
X118240000Y-94770000D03*
X120780000Y-105946000D03*
X120780000Y-103914000D03*
X120780000Y-101882000D03*
X120780000Y-97818000D03*
X120780000Y-95786000D03*
X120780000Y-93754000D03*
D39*
X123320000Y-105946000D03*
X123320000Y-103406000D03*
X123320000Y-96294000D03*
X123320000Y-93754000D03*
D40*
X99825000Y-107914500D03*
D41*
X99825000Y-91785500D03*
%TD*%
D11*
%TO.C,C3*%
X188225000Y-110000000D03*
X189775000Y-110000000D03*
%TD*%
D12*
%TO.C,R4*%
X163175000Y-106000000D03*
X164825000Y-106000000D03*
%TD*%
D27*
%TO.C,R7*%
X168000000Y-91825000D03*
X168000000Y-90175000D03*
%TD*%
D42*
%TO.C,L1*%
X166500000Y-107000000D03*
X166500000Y-108575000D03*
%TD*%
D27*
%TO.C,R26*%
X158500000Y-95650000D03*
X158500000Y-94000000D03*
%TD*%
D11*
%TO.C,C35*%
X148725000Y-100500000D03*
X150275000Y-100500000D03*
%TD*%
D14*
%TO.C,C16*%
X165000000Y-110000000D03*
X165000000Y-111550000D03*
%TD*%
D15*
%TO.C,C20*%
X166500000Y-91775000D03*
X166500000Y-90225000D03*
%TD*%
D14*
%TO.C,C14*%
X175500000Y-106000000D03*
X175500000Y-107550000D03*
%TD*%
D13*
%TO.C,R20*%
X148500000Y-90675000D03*
X148500000Y-92325000D03*
%TD*%
D11*
%TO.C,C33*%
X127720000Y-91500000D03*
X129270000Y-91500000D03*
%TD*%
D10*
%TO.C,C6*%
X165275000Y-101000000D03*
X163725000Y-101000000D03*
%TD*%
%TO.C,C4*%
X162775000Y-97000000D03*
X161225000Y-97000000D03*
%TD*%
%TO.C,C12*%
X161775000Y-92500000D03*
X160225000Y-92500000D03*
%TD*%
D14*
%TO.C,C17*%
X168000000Y-110000000D03*
X168000000Y-111550000D03*
%TD*%
D12*
%TO.C,R32*%
X126675000Y-93500000D03*
X128325000Y-93500000D03*
%TD*%
D11*
%TO.C,C19*%
X178225000Y-99000000D03*
X179775000Y-99000000D03*
%TD*%
D12*
%TO.C,R23*%
X152675000Y-103000000D03*
X154325000Y-103000000D03*
%TD*%
D10*
%TO.C,C24*%
X178275000Y-86500000D03*
X176725000Y-86500000D03*
%TD*%
D14*
%TO.C,C2*%
X180000000Y-110725000D03*
X180000000Y-112275000D03*
%TD*%
M02*
