%TF.GenerationSoftware,KiCad,Pcbnew,9.0.7*%
%TF.CreationDate,2026-03-29T23:01:15+05:30*%
%TF.ProjectId,USB3_to_RGMII_LAN7801,55534233-5f74-46f5-9f52-474d49495f4c,rev?*%
%TF.SameCoordinates,Original*%
%TF.FileFunction,Copper,L4,Bot*%
%TF.FilePolarity,Positive*%
%FSLAX46Y46*%
G04 Gerber Fmt 4.6, Leading zero omitted, Abs format (unit mm)*
G04 Created by KiCad (PCBNEW 9.0.7) date 2026-03-29 23:01:15*
%MOMM*%
%LPD*%
G01*
G04 APERTURE LIST*
G04 Aperture macros list*
%AMRoundRect*
0 Rectangle with rounded corners*
0 $1 Rounding radius*
0 $2 $3 $4 $5 $6 $7 $8 $9 X,Y pos of 4 corners*
0 Add a 4 corners polygon primitive as box body*
4,1,4,$2,$3,$4,$5,$6,$7,$8,$9,$2,$3,0*
0 Add four circle primitives for the rounded corners*
1,1,$1+$1,$2,$3*
1,1,$1+$1,$4,$5*
1,1,$1+$1,$6,$7*
1,1,$1+$1,$8,$9*
0 Add four rect primitives between the rounded corners*
20,1,$1+$1,$2,$3,$4,$5,0*
20,1,$1+$1,$4,$5,$6,$7,0*
20,1,$1+$1,$6,$7,$8,$9,0*
20,1,$1+$1,$8,$9,$2,$3,0*%
G04 Aperture macros list end*
%TA.AperFunction,ComponentPad*%
%ADD10RoundRect,0.250000X0.350000X-0.350000X0.350000X0.350000X-0.350000X0.350000X-0.350000X-0.350000X0*%
%TD*%
%TA.AperFunction,ComponentPad*%
%ADD11C,1.200000*%
%TD*%
%TA.AperFunction,ComponentPad*%
%ADD12O,2.400000X1.200000*%
%TD*%
%TA.AperFunction,ComponentPad*%
%ADD13O,2.100000X1.200000*%
%TD*%
%TA.AperFunction,HeatsinkPad*%
%ADD14C,0.500000*%
%TD*%
%TA.AperFunction,HeatsinkPad*%
%ADD15R,2.500000X2.500000*%
%TD*%
%TA.AperFunction,ComponentPad*%
%ADD16R,1.524000X1.524000*%
%TD*%
%TA.AperFunction,ComponentPad*%
%ADD17C,1.524000*%
%TD*%
%TA.AperFunction,ComponentPad*%
%ADD18C,1.800000*%
%TD*%
%TA.AperFunction,ComponentPad*%
%ADD19C,2.630000*%
%TD*%
%TA.AperFunction,ComponentPad*%
%ADD20C,2.610000*%
%TD*%
%TA.AperFunction,ViaPad*%
%ADD21C,0.500000*%
%TD*%
%TA.AperFunction,ViaPad*%
%ADD22C,0.400000*%
%TD*%
%TA.AperFunction,ViaPad*%
%ADD23C,0.600000*%
%TD*%
%TA.AperFunction,Conductor*%
%ADD24C,0.127000*%
%TD*%
%TA.AperFunction,Conductor*%
%ADD25C,0.380000*%
%TD*%
%TA.AperFunction,Conductor*%
%ADD26C,0.250000*%
%TD*%
%TA.AperFunction,Conductor*%
%ADD27C,0.200000*%
%TD*%
G04 APERTURE END LIST*
D10*
%TO.P,J1,1,VBUS*%
%TO.N,+5V*%
X190350000Y-103500000D03*
D11*
%TO.P,J1,2,D-*%
%TO.N,/D-*%
X190350000Y-101000000D03*
%TO.P,J1,3,D+*%
%TO.N,/D+*%
X190350000Y-99000000D03*
%TO.P,J1,4,GND*%
%TO.N,GND*%
X190350000Y-96500000D03*
%TO.P,J1,5,SSRX-*%
%TO.N,/SSRX-*%
X188850000Y-96000000D03*
%TO.P,J1,6,SSRX+*%
%TO.N,/SSRX+*%
X188850000Y-98000000D03*
%TO.P,J1,7,DRAIN*%
%TO.N,GND*%
X188850000Y-100000000D03*
%TO.P,J1,8,SSTX-*%
%TO.N,/XTSS-*%
X188850000Y-102000000D03*
%TO.P,J1,9,SSTX+*%
%TO.N,/XTSS+*%
X188850000Y-104000000D03*
D12*
%TO.P,J1,10,SHIELD*%
%TO.N,GND*%
X189600000Y-106400000D03*
D13*
X198100000Y-106400000D03*
D12*
X189600000Y-93600000D03*
D13*
X198100000Y-93600000D03*
%TD*%
D14*
%TO.P,U1,21,EP*%
%TO.N,GND*%
X183137500Y-109300000D03*
X183137500Y-110300000D03*
X183137500Y-111300000D03*
X184137500Y-109300000D03*
X184137500Y-110300000D03*
D15*
X184137500Y-110300000D03*
D14*
X184137500Y-111300000D03*
X185137500Y-109300000D03*
X185137500Y-110300000D03*
X185137500Y-111300000D03*
%TD*%
D16*
%TO.P,J2,1,MXCT3*%
%TO.N,Net-(J2-MXCT3)*%
X118240000Y-104930000D03*
D17*
%TO.P,J2,2,MX3-*%
%TO.N,/MX3-*%
X118240000Y-102898000D03*
%TO.P,J2,3,MX3+*%
%TO.N,/MX3+*%
X118240000Y-100866000D03*
%TO.P,J2,4,MX2+*%
%TO.N,/MX2+*%
X118240000Y-98834000D03*
%TO.P,J2,5,MX2-*%
%TO.N,/MX2-*%
X118240000Y-96802000D03*
%TO.P,J2,6,MXCT2*%
%TO.N,Net-(J2-MXCT2)*%
X118240000Y-94770000D03*
%TO.P,J2,7,MXCT4*%
%TO.N,Net-(J2-MXCT4)*%
X120780000Y-105946000D03*
%TO.P,J2,8,MX4+*%
%TO.N,/MX4+*%
X120780000Y-103914000D03*
%TO.P,J2,9,MX4-*%
%TO.N,/MX4-*%
X120780000Y-101882000D03*
%TO.P,J2,10,MX1-*%
%TO.N,/MX1-*%
X120780000Y-97818000D03*
%TO.P,J2,11,MX1+*%
%TO.N,/MX1+*%
X120780000Y-95786000D03*
%TO.P,J2,12,MXCT1*%
%TO.N,Net-(J2-MXCT1)*%
X120780000Y-93754000D03*
D18*
%TO.P,J2,13,LED2-*%
%TO.N,Net-(J2-LED2-)*%
X123320000Y-105946000D03*
%TO.P,J2,14,LED2+*%
%TO.N,Net-(J2-LED2+)*%
X123320000Y-103406000D03*
%TO.P,J2,15,LED1-*%
%TO.N,Net-(J2-LED1-)*%
X123320000Y-96294000D03*
%TO.P,J2,16,LED1+*%
%TO.N,Net-(J2-LED1+)*%
X123320000Y-93754000D03*
D19*
%TO.P,J2,SH*%
%TO.N,GND*%
X99825000Y-107914500D03*
D20*
X99825000Y-91785500D03*
%TD*%
D21*
%TO.N,GND*%
X141250000Y-99937500D03*
X171608200Y-99750000D03*
%TO.N,+3V3*%
X148422256Y-90422256D03*
%TO.N,GND*%
X165000000Y-111500000D03*
X149500000Y-95986500D03*
X174344701Y-88500000D03*
X140000000Y-92500000D03*
X150500000Y-100500000D03*
X121000000Y-87500000D03*
X164000000Y-99500000D03*
X158500000Y-94000000D03*
X179500000Y-92000000D03*
X179500000Y-93500000D03*
X169000000Y-88000000D03*
X144000000Y-92000000D03*
X134500000Y-105000000D03*
X180000000Y-112500000D03*
X146886900Y-91886900D03*
X134500000Y-96500000D03*
D22*
X179500000Y-102000000D03*
D21*
X144000000Y-107500000D03*
X161175000Y-96486500D03*
X175000000Y-114000000D03*
D22*
X194150000Y-108850000D03*
D21*
X175500000Y-107550000D03*
X135000000Y-88500000D03*
X131000000Y-90000000D03*
X140000000Y-107000000D03*
X163500000Y-90225000D03*
X160000000Y-92500000D03*
X135000000Y-87000000D03*
X136500000Y-90000000D03*
X177000000Y-97490001D03*
X139000000Y-111013500D03*
X136500000Y-93000000D03*
X168000000Y-111500000D03*
X190000000Y-110000000D03*
X157000000Y-93500000D03*
X168000000Y-108436500D03*
X133500000Y-91500000D03*
X138000000Y-107000000D03*
X163000000Y-106000000D03*
X173000000Y-91500000D03*
X178500000Y-86500000D03*
X127500000Y-91500000D03*
X172500000Y-85986500D03*
X136000000Y-105000000D03*
X121000000Y-112000000D03*
X133000000Y-95000000D03*
X148500000Y-103000000D03*
X166500000Y-90013500D03*
X118500000Y-112000000D03*
X142000000Y-107500000D03*
X179500000Y-95000000D03*
X118500000Y-87500000D03*
D22*
X184000000Y-106000000D03*
D21*
X162201436Y-101798564D03*
X176000000Y-90000000D03*
X163000000Y-104500000D03*
D23*
%TO.N,+5V*%
X195387502Y-108850000D03*
D21*
%TO.N,+3V3*%
X142500000Y-91000000D03*
X161775000Y-92500000D03*
X144000000Y-93563500D03*
X154500000Y-103000000D03*
X136000000Y-103225000D03*
X136387500Y-96612500D03*
X146725000Y-98000000D03*
X181775000Y-108975000D03*
X128500000Y-93500000D03*
X158000000Y-101650000D03*
X164887500Y-104612500D03*
X139500000Y-89000000D03*
X176108089Y-103627400D03*
X168000000Y-99000000D03*
X176000000Y-91775000D03*
X140000000Y-105500000D03*
X177612500Y-95112500D03*
X175000000Y-110000000D03*
X169500000Y-90175000D03*
X177725000Y-92000000D03*
X164072905Y-96927095D03*
X168000000Y-106950000D03*
X141000000Y-112000000D03*
D22*
X174000000Y-106000000D03*
D21*
X167500000Y-85986500D03*
X154500000Y-101500000D03*
X165436500Y-101000000D03*
X128500000Y-103500000D03*
%TO.N,+1V2*%
X177725000Y-102000000D03*
X175500000Y-106000000D03*
X168000000Y-110000000D03*
%TO.N,Net-(Q1-D)*%
X145500000Y-93050000D03*
X140000000Y-94000000D03*
X134710500Y-101187500D03*
X147000000Y-93550000D03*
D22*
X148000000Y-105500000D03*
X147000000Y-106000000D03*
D21*
X133187500Y-98687500D03*
X149000000Y-94500000D03*
D22*
X144000000Y-106000000D03*
D21*
X146725000Y-103000000D03*
X148725000Y-100500000D03*
X134500000Y-103225000D03*
X133000000Y-96775000D03*
D22*
X143500000Y-103000000D03*
D21*
%TO.N,Net-(U2-TX_CTL)*%
X168060198Y-100000000D03*
X144613100Y-102762500D03*
%TO.N,Net-(U2-RXD3)*%
X146069835Y-101572582D03*
X167730797Y-104063648D03*
%TO.N,Net-(U2-RXC)*%
X165500000Y-102000000D03*
X145794374Y-97596883D03*
%TO.N,Net-(U2-RXD2)*%
X145549826Y-101032125D03*
X167000000Y-103577403D03*
%TO.N,Net-(U2-RXD1)*%
X146685835Y-99814171D03*
X159250000Y-98750000D03*
X168060201Y-102747583D03*
%TO.N,Net-(U2-RXD0)*%
X146747034Y-99066671D03*
X166000000Y-103000000D03*
X160000000Y-98069500D03*
%TO.N,Net-(U2-RX_CTL)*%
X168000000Y-102000000D03*
X157000000Y-97500000D03*
X146000000Y-99000000D03*
%TO.N,Net-(U2-TXC)*%
X144495070Y-103401697D03*
X166392696Y-100321235D03*
%TO.N,Net-(U2-PHY_INT_N)*%
X174858201Y-103485473D03*
X144000000Y-95500000D03*
%TO.N,Net-(J2-LED1-)*%
X140922256Y-104577744D03*
X141000000Y-110500000D03*
%TO.N,Net-(J2-LED2-)*%
X139000000Y-109500000D03*
X135500000Y-109500000D03*
X139077744Y-104577744D03*
%TO.N,Net-(U2-PHY_RESET_N)*%
X175471249Y-104111589D03*
X142500000Y-87000000D03*
%TD*%
D24*
%TO.N,Net-(U2-RXC)*%
X166000000Y-100652101D02*
X166000000Y-101500000D01*
X165500000Y-100152101D02*
X166000000Y-100652101D01*
X165500000Y-99000001D02*
X165500000Y-100152101D01*
X164269594Y-97769595D02*
X165500000Y-99000001D01*
X163231334Y-97277000D02*
X163723929Y-97769595D01*
X161505265Y-97277000D02*
X163231334Y-97277000D01*
X161503264Y-97279000D02*
X161505265Y-97277000D01*
X160846735Y-97279000D02*
X161503264Y-97279000D01*
X160844735Y-97277000D02*
X160846735Y-97279000D01*
X159385848Y-96778000D02*
X159884848Y-97277000D01*
X146735500Y-96778000D02*
X159385848Y-96778000D01*
X146044767Y-97468733D02*
X146735500Y-96778000D01*
X145922524Y-97468733D02*
X146044767Y-97468733D01*
X145794374Y-97596883D02*
X145922524Y-97468733D01*
X166000000Y-101500000D02*
X165500000Y-102000000D01*
X163723929Y-97769595D02*
X164269594Y-97769595D01*
X159884848Y-97277000D02*
X160844735Y-97277000D01*
D25*
%TO.N,+5V*%
X192500000Y-105650000D02*
X193650000Y-105650000D01*
X190350000Y-103500000D02*
X192500000Y-105650000D01*
X193650000Y-105650000D02*
X195387502Y-107387502D01*
D26*
X195275000Y-108737498D02*
X195387502Y-108850000D01*
D25*
X195387502Y-107387502D02*
X195387502Y-108850000D01*
D27*
%TO.N,+1V2*%
X177500000Y-104000000D02*
X177500000Y-102225000D01*
X175500000Y-106000000D02*
X177500000Y-104000000D01*
X168000000Y-110000000D02*
X171500000Y-110000000D01*
X177500000Y-102225000D02*
X177725000Y-102000000D01*
X171500000Y-110000000D02*
X175500000Y-106000000D01*
D24*
%TO.N,Net-(Q1-D)*%
X144000000Y-106000000D02*
X147000000Y-106000000D01*
X133000000Y-98000000D02*
X133000000Y-96775000D01*
X147000000Y-93550000D02*
X148050000Y-93550000D01*
X148725000Y-101000000D02*
X146725000Y-103000000D01*
X146725000Y-104225000D02*
X148000000Y-105500000D01*
X144000000Y-105000000D02*
X144000000Y-106000000D01*
X140950000Y-93050000D02*
X140000000Y-94000000D01*
X133187500Y-98187500D02*
X133000000Y-98000000D01*
X148050000Y-93550000D02*
X149000000Y-94500000D01*
X143500000Y-104500000D02*
X144000000Y-105000000D01*
X134710500Y-101187500D02*
X134710500Y-100210500D01*
X134500000Y-101398000D02*
X134710500Y-101187500D01*
X133187500Y-98687500D02*
X133187500Y-98187500D01*
X148725000Y-100500000D02*
X148725000Y-101000000D01*
X143500000Y-103000000D02*
X143500000Y-104500000D01*
X145500000Y-93050000D02*
X140950000Y-93050000D01*
X134710500Y-100210500D02*
X133187500Y-98687500D01*
X134500000Y-103225000D02*
X134500000Y-101398000D01*
X146725000Y-103000000D02*
X146725000Y-104225000D01*
%TO.N,Net-(U2-TX_CTL)*%
X150850600Y-109000000D02*
X164000000Y-109000000D01*
X170000000Y-103000000D02*
X170000000Y-101939802D01*
X170000000Y-101939802D02*
X168060198Y-100000000D01*
X144613100Y-102762500D02*
X150850600Y-109000000D01*
X164000000Y-109000000D02*
X170000000Y-103000000D01*
%TO.N,Net-(U2-RXD3)*%
X166692554Y-104278000D02*
X165477782Y-104278000D01*
X167213113Y-104091903D02*
X166878651Y-104091903D01*
X148142417Y-99500000D02*
X146069835Y-101572582D01*
X167730797Y-104063648D02*
X167486082Y-103818933D01*
X165477782Y-104278000D02*
X160699782Y-99500000D01*
X167486082Y-103818933D02*
X167213113Y-104091903D01*
X166878651Y-104091903D02*
X166692554Y-104278000D01*
X160699782Y-99500000D02*
X148142417Y-99500000D01*
%TO.N,Net-(U2-RXD2)*%
X165592934Y-104000000D02*
X160814933Y-99222000D01*
X145549826Y-101032125D02*
X146217141Y-101032125D01*
X167000000Y-103577403D02*
X166577403Y-104000000D01*
X166577403Y-104000000D02*
X165592934Y-104000000D01*
X146217141Y-101032125D02*
X148027265Y-99222000D01*
X160814933Y-99222000D02*
X148027265Y-99222000D01*
%TO.N,Net-(U2-RXD1)*%
X158847500Y-98347500D02*
X159250000Y-98750000D01*
X146685835Y-99814171D02*
X147500006Y-99000000D01*
X165485500Y-103070500D02*
X165485500Y-103213113D01*
X165056584Y-103070500D02*
X165485500Y-103070500D01*
X161550848Y-98944000D02*
X164429500Y-101822652D01*
X147856113Y-99000000D02*
X148508613Y-98347500D01*
X166213113Y-103514500D02*
X166980030Y-102747583D01*
X148508613Y-98347500D02*
X158847500Y-98347500D01*
X159444000Y-98944000D02*
X161550848Y-98944000D01*
X164429500Y-102443415D02*
X165056584Y-103070500D01*
X165786887Y-103514500D02*
X166213113Y-103514500D01*
X166980030Y-102747583D02*
X168060201Y-102747583D01*
X165485500Y-103213113D02*
X165786887Y-103514500D01*
X159250000Y-98750000D02*
X159444000Y-98944000D01*
X164429500Y-101822652D02*
X164429500Y-102443415D01*
X147500006Y-99000000D02*
X147856113Y-99000000D01*
%TO.N,Net-(U2-RXD0)*%
X147075298Y-98830171D02*
X146983534Y-98830171D01*
X147835970Y-98069500D02*
X147075298Y-98830171D01*
X146983534Y-98830171D02*
X146747034Y-99066671D01*
X161069500Y-98069500D02*
X160000000Y-98069500D01*
X164707500Y-102328264D02*
X164707500Y-101707500D01*
X165792500Y-102792500D02*
X165171735Y-102792500D01*
X166000000Y-103000000D02*
X165792500Y-102792500D01*
X160000000Y-98069500D02*
X147835970Y-98069500D01*
X164707500Y-101707500D02*
X161069500Y-98069500D01*
X165171735Y-102792500D02*
X164707500Y-102328264D01*
%TO.N,Net-(U2-RX_CTL)*%
X164985500Y-101592348D02*
X164985500Y-102213113D01*
X164985500Y-102213113D02*
X165286887Y-102514500D01*
X159769697Y-97555000D02*
X160729583Y-97555000D01*
X157000000Y-97500000D02*
X148012318Y-97500000D01*
X157000000Y-97500000D02*
X159714696Y-97500000D01*
X160731584Y-97557000D02*
X160950152Y-97557000D01*
X165286887Y-102514500D02*
X165713113Y-102514500D01*
X160950152Y-97557000D02*
X164985500Y-101592348D01*
X159714696Y-97500000D02*
X159769697Y-97555000D01*
X146960147Y-98552171D02*
X146447829Y-98552171D01*
X165713113Y-102514500D02*
X166227613Y-102000000D01*
X146447829Y-98552171D02*
X146000000Y-99000000D01*
X160729583Y-97555000D02*
X160731584Y-97557000D01*
X166227613Y-102000000D02*
X168000000Y-102000000D01*
X148012318Y-97500000D02*
X146960147Y-98552171D01*
%TO.N,Net-(U2-TXC)*%
X161388113Y-97001000D02*
X161390113Y-96999000D01*
X144495070Y-103401697D02*
X144101697Y-103401697D01*
X144000000Y-97500000D02*
X144500000Y-97000000D01*
X166125899Y-99625899D02*
X166048408Y-99703390D01*
X161390113Y-96999000D02*
X163508405Y-96999000D01*
X144101697Y-103401697D02*
X144000000Y-103300000D01*
X163839081Y-97491595D02*
X164384746Y-97491595D01*
X164384746Y-97491595D02*
X166125899Y-99232748D01*
X144500000Y-97000000D02*
X145785887Y-97000000D01*
X144000000Y-103300000D02*
X144000000Y-97500000D01*
X163508405Y-97160919D02*
X163839081Y-97491595D01*
X163508405Y-96999000D02*
X163508405Y-97160919D01*
X160000000Y-96999000D02*
X160959887Y-96999000D01*
X166048408Y-99703390D02*
X166048408Y-99976947D01*
X145785887Y-97000000D02*
X146285887Y-96500000D01*
X166048408Y-99976947D02*
X166392696Y-100321235D01*
X160961887Y-97001000D02*
X161388113Y-97001000D01*
X166125899Y-99232748D02*
X166125899Y-99625899D01*
X159501000Y-96500000D02*
X160000000Y-96999000D01*
X146285887Y-96500000D02*
X159501000Y-96500000D01*
X160959887Y-96999000D02*
X160961887Y-97001000D01*
%TO.N,Net-(U2-PHY_INT_N)*%
X144000000Y-95500000D02*
X152722000Y-86778000D01*
X174858201Y-87358201D02*
X174858201Y-103485473D01*
X152722000Y-86778000D02*
X174278000Y-86778000D01*
X174278000Y-86778000D02*
X174858201Y-87358201D01*
%TO.N,Net-(J2-LED1-)*%
X141000000Y-110500000D02*
X137526000Y-110500000D01*
X137526000Y-110500000D02*
X123320000Y-96294000D01*
X140922256Y-104577744D02*
X140922256Y-110422256D01*
X140922256Y-110422256D02*
X141000000Y-110500000D01*
%TO.N,Net-(J2-LED2-)*%
X123320000Y-105946000D02*
X126874000Y-109500000D01*
X126874000Y-109500000D02*
X135500000Y-109500000D01*
X139000000Y-109500000D02*
X139000000Y-104655488D01*
X139000000Y-104655488D02*
X139077744Y-104577744D01*
%TO.N,Net-(U2-PHY_RESET_N)*%
X175471249Y-86971249D02*
X175471249Y-104111589D01*
X175000000Y-86500000D02*
X175471249Y-86971249D01*
X142500000Y-87000000D02*
X143000000Y-86500000D01*
X143000000Y-86500000D02*
X175000000Y-86500000D01*
%TD*%
M02*
